<svg id="Слой_1" xmlns="http://www.w3.org/2000/svg" viewBox="0 0 326 326"><style>.st0{fill:#fff}</style><path id="Forma_1" class="st0" d="M287.3 225.8c51.6-51.6 51.6-135.5 0-187.1s-135.5-51.6-187.1 0C56.5 82.4 49.9 147.5 80.3 198.3c0 0 2.2 3.7-.8 6.6L12 272.4c-13.4 13.4-16.6 32.2-4.7 44.1l2.1 2c11.9 11.9 30.7 8.7 44.1-4.7l67.3-67.4c1.8-1.8 4.6-2.2 6.8-.9 50.9 30.6 116 24 159.7-19.7zm-162.6-24.5c-38.2-38.2-38.2-100.1 0-138.2s100.1-38.2 138.2 0 38.2 100.1 0 138.2c-38.2 38.1-100 38.1-138.2 0zm8.4-76.9c-7.5 0-13.7-6.1-13.6-13.7 0-1.8.4-3.6 1.1-5.3 18.5-43.7 68.9-64.1 112.6-45.7 6.9 2.9 10.2 10.9 7.3 17.9-2.9 6.9-10.9 10.2-17.9 7.3-29.8-12.6-64.2 1.4-76.9 31.1-2.1 5.1-7.1 8.4-12.6 8.4z"/></svg>