<svg id="Слой_1" xmlns="http://www.w3.org/2000/svg" viewBox="0 0 933 237"><style>.st0{fill:#f0f0f0}</style><g id="Монтажная_область_1"><path id="Forma_1_copy_2" class="st0" d="M691.8 57.8L668.6 1.9c-.7-1.6-2.5-2.3-4.1-1.7l-77.2 31.9c-1.6.7-2.3 2.5-1.7 4L608.8 92c.7 1.6 2.5 2.3 4.1 1.7l77.2-31.9c1.6-.6 2.3-2.4 1.7-4zm-48.4.5l-47.2-23.1 64.3-26.6-17.1 49.7zm.4 7.1c.4.2.9.3 1.4.3.4 0 .8-.1 1.2-.2.8-.3 1.5-1 1.8-1.9l6.7-19.4 26.7 14.5-64.8 26.8 8.7-29.1 18.3 9zm39-13l-26-14.1 9.1-26.6 16.9 40.7zm-88.4-11.1l25.3 12.4-8.4 28.3-16.9-40.7zm-34.3 7.2h18c1.7 0 3.1-1.4 3.1-3.1 0-1.7-1.4-3.1-3.1-3.1h-18c-1.7 0-3.1 1.4-3.1 3.1 0 1.7 1.4 3.1 3.1 3.1zm30.9 29h-30.9c-1.7 0-3.1 1.4-3.1 3.1 0 1.7 1.4 3.1 3.1 3.1H591c1.7 0 3.1-1.4 3.1-3.1-.1-1.7-1.4-3.1-3.1-3.1zm-30.9-11.4h24.4c1.7 0 3.1-1.4 3.1-3.1 0-1.7-1.4-3.1-3.1-3.1h-24.4c-1.7 0-3.1 1.4-3.1 3.1 0 1.7 1.4 3.1 3.1 3.1z"/><path id="Forma_1_copy_5" class="st0" d="M318.8 54.7l-15.5-37.4c-.4-1.1-1.6-1.6-2.7-1.1l-51.5 21.4c-1.1.4-1.6 1.7-1.1 2.7l15.5 37.4c.3.8 1.1 1.3 1.9 1.3.3 0 .5-.1.8-.2l51.5-21.4c1.1-.4 1.6-1.6 1.1-2.7zm-32.2.3l-31.5-15.4 42.8-17.8L286.6 55zm.3 4.8c.3.1.6.2.9.2.3 0 .5-.1.8-.2.5-.2 1-.7 1.2-1.2l4.4-13 17.8 9.7-43.2 17.9 5.8-19.5 12.3 6.1zm26-8.7l-17.3-9.4 6.1-17.8 11.2 27.2zm-59-7.4l16.9 8.3-5.6 19-11.3-27.3zm-22.8 4.8h12c1.1 0 2.1-.9 2.1-2.1 0-1.1-.9-2.1-2.1-2.1h-12c-1.1 0-2.1 1-2 2.1-.1 1.2.8 2.1 2 2.1zm20.5 19.4H231c-1.1 0-2.1.9-2.1 2.1 0 1.1.9 2.1 2.1 2.1h20.6c1.4 0 2.6-.6 2.6-2.1 0-1.4-1.1-2.6-2.6-2.1zm-20.5-7.6h16.3c1.1 0 2.1-.9 2.1-2.1 0-1.1-.9-2.1-2.1-2.1h-16.3c-1.1 0-2.1 1-2 2.1-.1 1.2.8 2.1 2 2.1z"/><path id="Forma_1_copy_4" class="st0" d="M556.7 185.4l-32.8-79.7c-.9-2.2-3.5-3.3-5.7-2.4l-109.3 45.5c-1.1.4-1.9 1.3-2.4 2.4-.4 1.1-.4 2.3 0 3.4l32.8 79.6c.9 2.2 3.5 3.3 5.7 2.4h.1l109.3-45.5c2.1-.9 3.2-3.5 2.3-5.7zm-68.5.7l-66.8-32.9 90.9-37.9-24.1 70.8zm.6 10.1c.6.3 1.3.4 1.9.4.6 0 1.1-.1 1.7-.3 1.2-.5 2.1-1.5 2.5-2.6l9.4-27.6 37.8 20.6-91.6 38.2 12.3-41.5 26 12.8zm55.2-18.6l-36.8-20.1 12.9-37.9 23.9 58zm-125.1-15.8l35.8 17.6-11.9 40.4-23.9-58zm-48.5 10.3h25.5c2.4 0 4.4-2 4.4-4.4s-2-4.4-4.4-4.4h-25.5c-2.4 0-4.4 2-4.4 4.4s1.9 4.4 4.4 4.4zm43.6 41.3h-43.7c-2.4 0-4.4 2-4.4 4.4s2 4.4 4.4 4.4H414c2.4 0 4.4-2 4.4-4.4 0-2.4-1.9-4.3-4.4-4.4zm-43.6-16.2H405c2.4 0 4.4-2 4.4-4.4s-2-4.4-4.4-4.4h-34.6c-2.4 0-4.4 2-4.4 4.4 0 2.4 1.9 4.4 4.4 4.4z"/><path id="Forma_1" class="st0" d="M932.5 148.7l-45.4-110c-1.3-3.1-4.8-4.6-7.9-3.3l-151 62.8c-1.5.6-2.7 1.8-3.3 3.3-.6 1.5-.6 3.2 0 4.7l45.4 110c.9 2.3 3.2 3.8 5.6 3.8.8 0 1.6-.2 2.3-.5l151-62.8c3.1-1.3 4.6-4.8 3.3-8zm-94.6 1l-92.3-45.4L871.2 52l-33.3 97.7zm.8 13.9c1.6.8 3.4.8 5 .2 1.6-.7 2.9-2 3.4-3.7l13-38.1 52.3 28.5-126.7 52.7 16.9-57.3 36.1 17.7zM915 138l-50.8-27.7L882 58l33 80zm-172.8-21.8l49.5 24.3-16.5 55.7-33-80zm-67.1 14.2h35.2c3.4-.1 6-3 5.8-6.3-.1-3.2-2.7-5.7-5.8-5.8h-35.2c-3.4.1-6 3-5.9 6.3.1 3.1 2.7 5.6 5.9 5.8zm60.3 57.1h-60.3c-3.4.1-6 3-5.8 6.3.1 3.2 2.7 5.7 5.8 5.8h60.3c2.8-1.8 3.1-6.5 1.3-9.4-.5-.6-1.1-1.3-1.3-2.7zM675.1 165h47.8c3.4-.1 6-3 5.8-6.3-.1-3.2-2.7-5.7-5.8-5.8h-47.8c-3.4.1-6 3-5.9 6.3.1 3.1 2.7 5.7 5.9 5.8z"/><g id="form"><g id="bg"><path id="Forma_1_copy_6" class="st0" d="M89.8 145.7l-15.5-37.4c-.4-1.1-1.6-1.6-2.7-1.1l-51.5 21.4c-1.1.4-1.6 1.7-1.1 2.7l15.5 37.4c.3.8 1.1 1.3 1.9 1.3.3 0 .5-.1.8-.2l51.5-21.4c1.1-.4 1.6-1.6 1.1-2.7zm-32.2.3l-31.5-15.4 42.8-17.8L57.6 146zm.3 4.8c.3.1.6.2.9.2.3 0 .5-.1.8-.2.5-.2 1-.7 1.2-1.2l4.4-13 17.8 9.7-43.2 17.9 5.8-19.5 12.3 6.1zm26-8.7l-17.3-9.4 6.1-17.8 11.2 27.2zm-59-7.4l16.9 8.3-5.6 19-11.3-27.3zm-22.8 4.8h12c1.1 0 2.1-.9 2.1-2.1 0-1.1-.9-2.1-2.1-2.1h-12c-1.1 0-2.1 1-2 2.1-.1 1.2.8 2.1 2 2.1zm20.5 19.4H2.1c-1.1 0-2.1.9-2.1 2.1 0 1.1.9 2.1 2.1 2.1h20.6c1.4 0 2.6-.6 2.6-2.1-.1-1.4-1.2-2.6-2.7-2.1zm-20.5-7.6h16.3c1.1 0 2.1-.9 2.1-2.1 0-1.1-.9-2.1-2.1-2.1H2.1c-1.1 0-2.1 1-2 2.1-.1 1.2.8 2.1 2 2.1z"/></g></g></g></svg>