<svg xmlns="http://www.w3.org/2000/svg" width="220" height="220" viewBox="0 0 220 220"><defs><style>.cls-1{fill:#f0f0f0;fill-rule:evenodd}</style></defs><path id="Forma_1_copy_10" data-name="Forma 1 copy 10" class="cls-1" d="M1513.87 5496.06a28.936 28.936 0 0 1 .02 41.13l-.02.01a29.151 29.151 0 1 1-41.3-41.15v.01a29.188 29.188 0 0 1 41.3 0zm0-.01v.01h.01zm-41.3 41.15v-.01h-.01zm-8.55-136.39v42.01a103.127 103.127 0 0 1 102.96 103.1h.01v.08h42.18a145.446 145.446 0 0 0-145.15-145.19zm.08-74.81v41.99c98.03.07 177.72 79.88 177.79 178.01H1684a220.32 220.32 0 0 0-219.9-220z" transform="translate(-1464 -5326)"/></svg>