<?xml version="1.0" encoding="utf-8"?><svg xmlns="http://www.w3.org/2000/svg" xmlns:xlink="http://www.w3.org/1999/xlink"><symbol viewBox="0 0 18.7 35.4" id="arrow" xmlns="http://www.w3.org/2000/svg"><path d="M18.7 17L1.5 0 .1 1.4l16.2 16.3L0 34l1.6 1.4 17.1-17z"/></symbol><symbol viewBox="0 0 19 18" id="calendar" xmlns="http://www.w3.org/2000/svg"><defs><style>.bcls-1{fill:#fff;fill-rule:evenodd;opacity:.5}</style></defs><path id="bForma_1_copy_2" data-name="Forma 1 copy 2" class="bcls-1" d="M375.671 362h17.658a.672.672 0 0 0 .671-.688v-15.35a.672.672 0 0 0-.671-.687h-3.322v-.588a.671.671 0 1 0-1.342 0v.588h-8.216v-.588a.671.671 0 1 0-1.342 0v.588h-3.436a.671.671 0 0 0-.671.687v15.367a.679.679 0 0 0 .671.671zm.671-15.35h2.765v.369a.671.671 0 1 0 1.342 0v-.369h8.216v.369a.671.671 0 1 0 1.342 0v-.369h2.667v1.778h-16.332v-1.778zm0 3.154h16.316v10.837h-16.316V349.8zm12.994 3.154h-9.656a.688.688 0 0 0 0 1.376h9.656a.688.688 0 0 0 0-1.376zm-4.828 3.321h-4.828a.688.688 0 0 0 0 1.376h4.828a.688.688 0 0 0 0-1.376z" transform="translate(-375 -344)"/></symbol><symbol viewBox="0 0 15 17" id="clip" xmlns="http://www.w3.org/2000/svg"><defs><style>.ccls-1{fill-rule:evenodd}</style></defs><path id="cForma_1" data-name="Forma 1" class="ccls-1" d="M1018.74 1202.49a5.142 5.142 0 0 1-7.26 0 5.3 5.3 0 0 1 0-7.36l6.93-7.02a3.7 3.7 0 0 1 5.27 0 3.834 3.834 0 0 1 0 5.35l-5.6 5.68a2.283 2.283 0 0 1-3.3 0 2.348 2.348 0 0 1 0-3.34l4.94-5.02.99 1.01-4.94 5.01a.9.9 0 0 0 0 1.34.876.876 0 0 0 1.32 0l5.6-5.69a2.348 2.348 0 0 0 0-3.34 2.283 2.283 0 0 0-3.3 0l-6.92 7.02a3.834 3.834 0 0 0 0 5.35 3.712 3.712 0 0 0 5.28 0l6.26-6.35.99 1z" transform="translate(-1010 -1187)"/></symbol><symbol viewBox="0 0 15.642 15.642" id="close" xmlns="http://www.w3.org/2000/svg"><path fill-rule="evenodd" d="M8.882 7.821l6.541-6.541A.75.75 0 1 0 14.362.219L7.821 6.76 1.28.22A.75.75 0 1 0 .219 1.281L6.76 7.822l-6.54 6.54a.75.75 0 0 0 1.06 1.061l6.541-6.541 6.541 6.541a.75.75 0 1 0 1.06-1.061l-6.54-6.541z"/></symbol><symbol viewBox="0 0 10.5 19.19" id="fb" xmlns="http://www.w3.org/2000/svg"><defs><style>.ecls-1{fill:#fff;fill-rule:evenodd;opacity:.3}</style></defs><path id="eForma_1" data-name="Forma 1" class="ecls-1" d="M1766.7 1979.8h-2.52a4.4 4.4 0 0 0-4.67 4.72v2.18h-2.53a.4.4 0 0 0-.4.39v3.16a.393.393 0 0 0 .4.39h2.53v7.97a.4.4 0 0 0 .4.39h3.31a.4.4 0 0 0 .4-.39v-7.97h2.96a.393.393 0 0 0 .4-.39v-3.16a.357.357 0 0 0-.12-.27.363.363 0 0 0-.28-.12h-2.96v-1.85c0-.88.21-1.33 1.38-1.33h1.7a.4.4 0 0 0 .4-.4v-2.93a.4.4 0 0 0-.4-.39z" transform="translate(-1756.59 -1979.81)"/></symbol><symbol viewBox="0 0 58 57" id="header-right" xmlns="http://www.w3.org/2000/svg"><defs><style>.fcls-1{fill:#fff;fill-rule:evenodd}</style></defs><g id="fМонтажная_область_1" data-name="Монтажная область 1"><g id="fcall"><path class="fcls-1" d="M112.337.013H98.959a1.675 1.675 0 0 0 0 3.351h9.341L91.087 20.611a1.674 1.674 0 0 0 2.365 2.369l17.213-17.246v9.359a1.672 1.672 0 1 0 3.344 0V1.688a1.673 1.673 0 0 0-1.672-1.675z" transform="translate(-56)"/><path class="fcls-1" d="M104.682 34a5.946 5.946 0 0 0-4.31-1.976 6.147 6.147 0 0 0-4.361 1.964L91.981 38c-.331-.179-.663-.346-.982-.511-.459-.229-.893-.445-1.263-.675a43.819 43.819 0 0 1-10.495-9.567 25.873 25.873 0 0 1-3.441-5.435c1.046-.958 2.015-1.952 2.958-2.908.357-.359.714-.729 1.072-1.085a5.855 5.855 0 0 0 0-8.829l-3.483-3.482c-.4-.4-.8-.8-1.186-1.212a56.649 56.649 0 0 0-2.4-2.372A6.032 6.032 0 0 0 68.492.048a6.243 6.243 0 0 0-4.336 1.876l-.025.025L59.8 6.325a9.334 9.334 0 0 0-2.767 5.933 22.366 22.366 0 0 0 1.632 9.465A54.951 54.951 0 0 0 68.416 38 60.01 60.01 0 0 0 88.4 53.655a31.133 31.133 0 0 0 11.22 3.317c.268.013.548.025.8.025a9.6 9.6 0 0 0 7.358-3.164c.013-.025.038-.039.051-.063a28.755 28.755 0 0 1 2.231-2.31 51.283 51.283 0 0 0 1.658-1.646 6.369 6.369 0 0 0 1.926-4.414 6.131 6.131 0 0 0-1.964-4.376zm4.565 13.435c-.013 0-.013.013 0 0-.5.535-1.007 1.022-1.555 1.557a33.026 33.026 0 0 0-2.462 2.551 6.143 6.143 0 0 1-4.794 2.028c-.192 0-.4 0-.587-.013a27.655 27.655 0 0 1-9.949-2.991A56.621 56.621 0 0 1 71.081 35.82a51.778 51.778 0 0 1-9.181-15.3 18.224 18.224 0 0 1-1.428-7.986 5.853 5.853 0 0 1 1.76-3.788L66.579 4.4a2.905 2.905 0 0 1 1.939-.905 2.729 2.729 0 0 1 1.862.893l.038.039a69.433 69.433 0 0 1 2.3 2.283c.395.409.8.817 1.211 1.237l3.481 3.484c1.352 1.353 1.352 2.6 0 3.954-.37.369-.727.74-1.1 1.1-1.071 1.1-2.091 2.118-3.2 3.114a.325.325 0 0 0-.064.063 2.6 2.6 0 0 0-.663 2.9l.038.115a27.937 27.937 0 0 0 4.119 6.724l.012-.001a46.791 46.791 0 0 0 11.323 10.31 16.884 16.884 0 0 0 1.568.855c.459.23.893.448 1.263.676.051.025.1.064.153.089a2.771 2.771 0 0 0 1.262.32 2.723 2.723 0 0 0 1.938-.882l4.361-4.362a2.884 2.884 0 0 1 1.926-.958 2.6 2.6 0 0 1 1.836.932l.025.026 7.026 7.029a2.523 2.523 0 0 1 .014 3.995z" transform="translate(-56)"/></g></g></symbol><symbol viewBox="0 0 19 18" id="in" xmlns="http://www.w3.org/2000/svg"><defs><style>.gcls-1{fill:#fff;fill-rule:evenodd}</style></defs><path id="gForma_1" data-name="Forma 1" class="gcls-1" d="M1724.01 1990.04v6.97h-4.08v-6.5c0-1.63-.58-2.75-2.06-2.75a2.215 2.215 0 0 0-2.09 1.48 2.668 2.668 0 0 0-.14.98v6.79h-4.07s.05-11.01 0-12.15h4.07v1.72a.076.076 0 0 1-.02.04h.02v-.04a4.064 4.064 0 0 1 3.68-2.01c2.68 0 4.69 1.74 4.69 5.47zm-16.7-11.04a2.107 2.107 0 1 0-.06 4.2h.03a2.108 2.108 0 1 0 .03-4.2zm-2.07 18.01h4.08v-12.15h-4.08v12.15z" transform="translate(-1705 -1979)"/></symbol><symbol viewBox="0 0 16 17" id="magnific" xmlns="http://www.w3.org/2000/svg"><defs><style>.hcls-1{fill:#fff;fill-rule:evenodd}</style></defs><path id="hForma_1" data-name="Forma 1" class="hcls-1" d="M412.75 1874.48l-3.943-4.2a6.976 6.976 0 0 0 1.569-4.42 6.691 6.691 0 1 0-6.689 6.87 6.528 6.528 0 0 0 3.833-1.24l3.973 4.23a.848.848 0 0 0 .628.28.861.861 0 0 0 .605-.25.917.917 0 0 0 .024-1.27zm-9.063-13.69a5.077 5.077 0 1 1-4.944 5.07 5.017 5.017 0 0 1 4.944-5.07z" transform="translate(-397 -1859)"/></symbol><symbol viewBox="0 0 40 40" id="research-01" xmlns="http://www.w3.org/2000/svg"><defs><style>.icls-1{fill:#2b374d;fill-rule:evenodd}</style></defs><path class="icls-1" d="M32.848 28.06l1.156-1.15-.912-.91-1.157 1.15-1.217-1.22a12.17 12.17 0 0 0 1.54-5.93c0-.18-.019-.36-.028-.54a6.722 6.722 0 0 0 5.189-6.56h-1.29a5.428 5.428 0 0 1-4.025 5.26 12.265 12.265 0 0 0-12.1-10.42c-.184 0-.363.02-.545.03a6.712 6.712 0 0 0-6.552-5.19v1.29a5.424 5.424 0 0 1 5.258 4.03A12.261 12.261 0 0 0 7.746 20c0 .18.019.36.028.54a6.722 6.722 0 0 0-5.189 6.56h1.29a5.419 5.419 0 0 1 4.024-5.26 12.232 12.232 0 0 0 18.039 8.88l1.218 1.22L26 33.09l.912.91 1.157-1.15 6.162 6.16a3.353 3.353 0 0 0 2.391.99 3.388 3.388 0 0 0 3.383-3.38 3.35 3.35 0 0 0-.99-2.39zM20 9.03a10.976 10.976 0 0 1 10.837 9.37l-1.271.21A9.683 9.683 0 0 0 20 10.32c-.033 0-.065.01-.1.01l-.213-1.28c.106-.01.213-.02.313-.02zm0 2.58A8.39 8.39 0 1 1 11.613 20 8.4 8.4 0 0 1 20 11.61zM9.032 20A10.981 10.981 0 0 1 18.4 9.16l.212 1.27A9.692 9.692 0 0 0 10.323 20v.1l-1.28.21c.002-.1-.011-.21-.011-.31zM20 30.97A10.978 10.978 0 0 1 9.162 21.6l1.272-.21A9.671 9.671 0 0 0 29.677 20v-.1l1.28-.21c0 .1.016.2.016.31A10.981 10.981 0 0 1 20 30.97zm7.052-.96a12.283 12.283 0 0 0 2.958-2.96l1.013 1.01-2.959 2.96zm9.566 8.7a2.094 2.094 0 0 1-1.479-.61l-6.162-6.16 2.958-2.96 6.162 6.16a2.07 2.07 0 0 1 .613 1.48 2.1 2.1 0 0 1-2.092 2.09zm-2.425-27.1a5.805 5.805 0 1 0-5.806-5.8 5.809 5.809 0 0 0 5.806 5.8zm1.936-1.73a4.477 4.477 0 0 1-3.871 0v-.85a1.936 1.936 0 0 1 3.871 0v.85zm-3.226-5.36a1.291 1.291 0 1 1 1.29 1.29A1.286 1.286 0 0 1 32.9 4.52zm1.29-3.23a4.514 4.514 0 0 1 3.22 7.68 3.218 3.218 0 0 0-1.417-2.61 2.581 2.581 0 1 0-3.6 0 3.216 3.216 0 0 0-1.417 2.61 4.514 4.514 0 0 1 3.214-7.68zM5.806 11.61A5.805 5.805 0 1 0 0 5.81a5.809 5.809 0 0 0 5.806 5.8zm1.936-1.73a4.477 4.477 0 0 1-3.871 0v-.85a1.936 1.936 0 0 1 3.871 0v.85zM4.516 4.52a1.291 1.291 0 1 1 1.29 1.29 1.286 1.286 0 0 1-1.29-1.29zm1.29-3.23a4.514 4.514 0 0 1 3.22 7.68 3.218 3.218 0 0 0-1.417-2.61 2.581 2.581 0 1 0-3.6 0 3.218 3.218 0 0 0-1.417 2.61 4.514 4.514 0 0 1 3.214-7.68zm0 27.1a5.805 5.805 0 1 0 5.807 5.8 5.808 5.808 0 0 0-5.807-5.8zm1.936 9.88a4.477 4.477 0 0 1-3.871 0v-.85a1.936 1.936 0 1 1 3.871 0v.85zM4.516 32.9a1.291 1.291 0 1 1 1.29 1.29 1.293 1.293 0 0 1-1.29-1.29zm4.51 4.45a3.233 3.233 0 0 0-1.417-2.61 2.553 2.553 0 0 0 .778-1.84 2.581 2.581 0 0 0-5.161 0 2.553 2.553 0 0 0 .778 1.84 3.233 3.233 0 0 0-1.417 2.61 4.517 4.517 0 1 1 6.439 0zm3.877-18.64v4.52H27.1v-7.1h-3.871v5.81h-1.291v-8.39h-3.871v8.39h-1.29v-3.23H12.9zm11.613-1.29h1.29v4.52h-1.29v-4.52zm-5.161-2.58h1.29v7.1h-1.29v-7.1zm-3.871 7.1h-1.29V20h1.29v1.94z"/></symbol><symbol viewBox="0 0 44 37" id="research-02" xmlns="http://www.w3.org/2000/svg"><defs><style>.jcls-1{fill:#2b374d;fill-rule:evenodd}</style></defs><path id="jForma_1" data-name="Forma 1" class="jcls-1" d="M819.568 3122a6.05 6.05 0 0 0 0 12.1 6.077 6.077 0 0 0 6.06-6.07 6.01 6.01 0 0 0-6.06-6.03zm0 10.77a4.72 4.72 0 1 1 4.732-4.7 4.734 4.734 0 0 1-4.732 4.7zm1.909-3.79a1.161 1.161 0 0 0-.124-.33 1.055 1.055 0 0 0-.167-.29c-.083-.08-.124-.17-.207-.25a.763.763 0 0 0-.291-.21 1.049 1.049 0 0 0-.29-.16c-.125-.04-.208-.13-.332-.17a2.892 2.892 0 0 1-.332-.12.338.338 0 0 1-.166-.09c-.042-.04-.125-.04-.166-.08s-.125-.04-.166-.08a1.564 1.564 0 0 0-.125-.13.207.207 0 0 1-.083-.16.277.277 0 0 1-.041-.17v-.21c0-.04.041-.12.041-.17.042-.04.042-.12.083-.16a1.564 1.564 0 0 0 .125-.13.321.321 0 0 1 .207-.08.388.388 0 0 1 .208-.04h.249a.384.384 0 0 1 .207.04 1.894 1.894 0 0 1 .208.04c.041 0 .124.04.166.04a.825.825 0 0 1 .166.05l.207.08.042-.25.083-.67v-.16l-.166-.04c-.042 0-.125-.05-.166-.05a.983.983 0 0 0-.166-.04 1.894 1.894 0 0 0-.208-.04c-.083 0-.124-.04-.207-.04h-.042v-.79h-1v.83h-.041a1.243 1.243 0 0 0-.374.17.677.677 0 0 0-.291.21 1.493 1.493 0 0 0-.249.29.779.779 0 0 0-.166.33l-.124.37a1.429 1.429 0 0 0-.042.42.893.893 0 0 0 .042.33.975.975 0 0 0 .124.33c.042.09.125.21.166.3.083.08.125.16.208.24a.671.671 0 0 0 .291.21.869.869 0 0 0 .29.17 1.652 1.652 0 0 1 .332.17 2.892 2.892 0 0 1 .332.12.316.316 0 0 1 .166.08 1.284 1.284 0 0 1 .166.09.222.222 0 0 0 .125.08l.124.12a.842.842 0 0 1 .083.17 1.515 1.515 0 0 1 .042.21v.21a.3.3 0 0 1-.083.16c-.042.04-.083.09-.125.13a.564.564 0 0 1-.166.12c-.041.04-.124.04-.166.08a1.5 1.5 0 0 1-.207.05h-.54a1.5 1.5 0 0 1-.207-.05.6.6 0 0 1-.249-.08c-.084-.04-.167-.04-.25-.08-.041 0-.083-.04-.124-.04s-.083-.04-.125-.04l-.249-.13-.041.29-.083.75v.12l.124.05a.518.518 0 0 1 .374.04.789.789 0 0 0 .29.08c.084.04.208.04.333.08a.767.767 0 0 0 .332.05h.083v.83h1v-.88h.041a1.506 1.506 0 0 0 .374-.16 1.55 1.55 0 0 0 .332-.21 1.867 1.867 0 0 0 .249-.29 2.469 2.469 0 0 0 .208-.33c.041-.13.083-.25.124-.38a1.267 1.267 0 0 0 .041-.41.968.968 0 0 0-.041-.34zm-4.815 5.91a.7.7 0 0 0-.954-.13l-6.725 5.37-8.675-3.62a.682.682 0 0 0-.622.08l-9.3 6.65a.673.673 0 0 0-.166.92.6.6 0 0 0 .54.29.626.626 0 0 0 .373-.13l9.007-6.44 8.717 3.62a.741.741 0 0 0 .664-.09l7.015-5.57a.7.7 0 0 0 .126-.95zm9.713 22.78H823.3v-19.25a.654.654 0 0 0-.664-.66h-6.1a.654.654 0 0 0-.664.66v19.25h-2.242v-12.6a.654.654 0 0 0-.664-.66h-6.143a.654.654 0 0 0-.664.66v12.6h-2.239v-13.59a.657.657 0 0 0-.665-.67h-6.1a.656.656 0 0 0-.664.67v13.59h-2.242v-9.69a.654.654 0 0 0-.664-.66h-6.143a.655.655 0 0 0-.664.66v9.69h-3.113a.665.665 0 0 0 0 1.33h42.669a.656.656 0 0 0 .664-.67.6.6 0 0 0-.623-.66zm-33.5 0h-4.774v-9.02h4.774v9.02zm9.712 0h-4.773v-12.93h4.773v12.93zm9.671 0h-4.773v-11.93h4.773v11.93zm9.713 0H817.2v-18.58h4.773v18.58z" transform="translate(-783 -3122)"/></symbol><symbol viewBox="0 0 41 41" id="research-03" xmlns="http://www.w3.org/2000/svg"><defs><style>.kcls-1{fill:#2b374d;fill-rule:evenodd}</style></defs><path class="kcls-1" d="M36.43 34.47l-.68-.27a20.5 20.5 0 0 0 1.7-25.23.56.56 0 0 0-.1-.15 20.8 20.8 0 0 0-3.57-3.94.659.659 0 0 0-.92.07.64.64 0 0 0 .08.91 19.611 19.611 0 0 1 2.93 3.12 28.426 28.426 0 0 1-4.85 1.35 22.844 22.844 0 0 0-1.87-4.19 14.8 14.8 0 0 0-3.36-4.11 19.335 19.335 0 0 1 5.45 2.54.645.645 0 1 0 .72-1.07 20.5 20.5 0 0 0-26.7 30.7l-.67.26a3.676 3.676 0 0 0-2.33 3.57v2.32a.649.649 0 0 0 .65.65h9.53a.41.41 0 0 1 .18 0h2.64a.65.65 0 0 0 0-1.3h-1.99v-2.25a3.175 3.175 0 0 1 1.94-3.09c.01 0 .02-.01.03-.01l3.16-1.23.02.02 1.67 1.63a.627.627 0 0 0 .45.18h.01a.613.613 0 0 0 .46-.2l1.61-1.66 3.15 1.26a.1.1 0 0 0 .03.01 3.161 3.161 0 0 1 1.94 3.09v2.25H17.28a.65.65 0 1 0 0 1.3H38.1a.649.649 0 0 0 .65-.65v-2.32a3.667 3.667 0 0 0-2.32-3.56zm-1.96-.79l-.64-.26v-.36a3.4 3.4 0 0 0 1.5-1.87 1.83 1.83 0 0 0 1.02-3.24V26.8a4.373 4.373 0 0 0-3.81-4.33c.02-.44.04-.88.05-1.32h7.1a19.08 19.08 0 0 1-5.22 12.53zm-2.34-1.46h-.59a2.074 2.074 0 0 1-2.07-2.07v-1.71a6.769 6.769 0 0 0 3.48-1.35 2.937 2.937 0 0 0 1.26 1.2v1.86a2.083 2.083 0 0 1-2.08 2.07zm.4 1.27v.36l-.72.75-.67-.66v-.45a2.6 2.6 0 0 0 .4.03h.59a2.6 2.6 0 0 0 .4-.03zm-3.71-6.31a.17.17 0 0 0-.07.01h-.02a.06.06 0 0 0-.04.01h-.03a.037.037 0 0 1-.03.01.035.035 0 0 0-.02.01v-.42a3.069 3.069 0 0 1 3.06-3.07h.31a3.077 3.077 0 0 1 3.07 3.07v.41a.076.076 0 0 1-.04-.01H35a1.98 1.98 0 0 1-1.2-1.42.654.654 0 0 0-1.16-.24c-1.17 1.62-3.79 1.64-3.82 1.64zm6.68 2.62v-.87a.54.54 0 0 1 .23.44.522.522 0 0 1-.23.43zm1.13-19.73a19.149 19.149 0 0 1 3.06 9.78h-7.11a32.388 32.388 0 0 0-1.18-8.28 29.355 29.355 0 0 0 5.23-1.5zm-5.34 9.78h-6.63a5.306 5.306 0 0 0-3.51-1.73v-5.56a58.038 58.038 0 0 0 8.97-.76 30.974 30.974 0 0 1 1.17 8.05zm-5.71 6.76a.837.837 0 0 1-.61.8v-1.6a.837.837 0 0 1 .61.8zM21.15 1.33c2.57.28 5 2.19 6.88 5.46a21.663 21.663 0 0 1 1.7 3.77 56.978 56.978 0 0 1-8.58.7V1.33zm-.41 18.07a4.012 4.012 0 0 1 4 4v.79c-.01 0-.01-.01-.02-.01s-.02-.01-.03-.02a.038.038 0 0 0-.02-.02c-.01 0-.02-.01-.03-.01s-.02-.01-.03-.02a.035.035 0 0 1-.02-.01.076.076 0 0 0-.04-.01.031.031 0 0 0-.02-.01.076.076 0 0 0-.04-.01.031.031 0 0 0-.02-.01 2.637 2.637 0 0 1-1.62-1.9.671.671 0 0 0-.51-.49.646.646 0 0 0-.65.26c-1.52 2.09-4.86 2.11-4.91 2.11-.02 0-.05.01-.07.01h-.02a.06.06 0 0 0-.04.01h-.03a2317974038.416 2317974038.416 0 0 1-.06.02c-.01.01-.02.01-.03.02s-.03.01-.04.01-.01.01-.02.01a.053.053 0 0 1-.03.02.031.031 0 0 1-.02.01l-.03.03a.035.035 0 0 0-.02.01l-.02.02v-.81a4 4 0 0 1 4-4h.39zm-11.03.45a30.974 30.974 0 0 1 1.17-8.05 59.3 59.3 0 0 0 8.97.76v5.57a5.318 5.318 0 0 0-3.43 1.73.17.17 0 0 0-.07-.01H9.71zm6.42 5.96v1.61a.837.837 0 0 1-.63-.81.817.817 0 0 1 .63-.8zm3.72-24.48v9.93a58.545 58.545 0 0 1-8.58-.7 21.663 21.663 0 0 1 1.7-3.77c1.88-3.27 4.31-5.18 6.88-5.46zm-4.65.71a14.757 14.757 0 0 0-3.35 4.1 22.168 22.168 0 0 0-1.86 4.19 28.168 28.168 0 0 1-4.85-1.35A19.281 19.281 0 0 1 15.2 2.04zM4.38 10.07a28.99 28.99 0 0 0 5.22 1.5 32.388 32.388 0 0 0-1.18 8.28H1.31a19.119 19.119 0 0 1 3.07-9.78zm4.17 23.42a2.728 2.728 0 0 0 .41.03h.59a2.693 2.693 0 0 0 .4-.03v.36l-.72.75-.68-.66v-.45zm1-1.27h-.59a2.076 2.076 0 0 1-2.08-2.07v-1.71a6.8 6.8 0 0 0 3.49-1.35 2.966 2.966 0 0 0 1.25 1.2v1.86a2.074 2.074 0 0 1-2.07 2.07zm1.66-6.44a.631.631 0 0 0-.5-.49.644.644 0 0 0-.65.25c-1.18 1.62-3.79 1.64-3.82 1.64h-.01a.127.127 0 0 0-.06.01h-.02a.09.09 0 0 0-.05.01h-.02a.076.076 0 0 1-.04.01c-.01 0-.01.01-.02.01v-.42a3.077 3.077 0 0 1 3.07-3.07h.31a3.077 3.077 0 0 1 3.07 3.07v.41a.048.048 0 0 1-.04-.01h-.02a2.006 2.006 0 0 1-1.2-1.42zm-9.9-4.63h7.1c.01.44.03.89.05 1.33a4.357 4.357 0 0 0-3.73 4.32v1.14a1.825 1.825 0 0 0 1.02 3.25 3.415 3.415 0 0 0 1.51 1.87v.36l-.71.28a19.1 19.1 0 0 1-5.24-12.55zm4.28 7.77v.9a.552.552 0 0 1-.25-.45.525.525 0 0 1 .25-.45zm6.38 8.53v2.25H3.56v-1.67a2.426 2.426 0 0 1 1.46-2.35.037.037 0 0 0 .03-.01l2.44-.95 1.3 1.26a.627.627 0 0 0 .45.18h.01a.642.642 0 0 0 .46-.19l1.22-1.28 1.52.61a4.806 4.806 0 0 0-.48 2.15zm6.25-5.66l-3.44 1.35a4.228 4.228 0 0 0-1.58 1.07l-1.96-.79v-.36a3.415 3.415 0 0 0 1.51-1.87 1.824 1.824 0 0 0 1.01-3.24V26.8a4.367 4.367 0 0 0-4-4.35c-.02-.43-.04-.87-.05-1.3h5.85a5.262 5.262 0 0 0-.5 2.25v1.51a2.123 2.123 0 0 0 1.24 3.83 4.024 4.024 0 0 0 1.92 2.39v.66zm-5.31-1.99v-.87a.54.54 0 0 1 .23.44.509.509 0 0 1-.23.43zm8.68 2.45v.04l-1.06 1.1-1.02-.99v-.81a5.035 5.035 0 0 0 .67.05h.74a4.913 4.913 0 0 0 .67-.05v.66zm-.67-1.9h-.74a2.757 2.757 0 0 1-2.75-2.76v-2.28a8.18 8.18 0 0 0 4.56-1.8 3.562 3.562 0 0 0 1.69 1.65v2.43a2.766 2.766 0 0 1-2.76 2.76zm6.89 3.86a4.08 4.08 0 0 0-1.58-1.07l-3.35-1.34v-.67a4.106 4.106 0 0 0 1.93-2.39 2.127 2.127 0 0 0 1.22-3.82V23.4a5.262 5.262 0 0 0-.5-2.25h5.76c-.01.43-.03.87-.05 1.31a4.364 4.364 0 0 0-3.93 4.34v1.14a1.854 1.854 0 0 0-.68 1.43 1.827 1.827 0 0 0 1.71 1.82 3.4 3.4 0 0 0 1.5 1.87v.36zm.36-5.29v.9a.552.552 0 0 1-.25-.45.525.525 0 0 1 .25-.45zm9.29 10.78h-8.42v-2.25a4.934 4.934 0 0 0-.47-2.14l1.51-.59 1.3 1.26a.627.627 0 0 0 .45.18h.01a.636.636 0 0 0 .45-.19l1.23-1.28 2.44.98a.028.028 0 0 0 .03.01 2.414 2.414 0 0 1 1.47 2.35v1.67z"/></symbol><symbol viewBox="0 0 40.031 43" id="research-04" xmlns="http://www.w3.org/2000/svg"><defs><style>.lcls-1{fill:#2b374d;fill-rule:evenodd}</style></defs><path id="lForma_1" data-name="Forma 1" class="lcls-1" d="M409.639 3363.31a18.424 18.424 0 0 0-25.882 0 17.94 17.94 0 0 0-5.36 12.67l-3.33 6.6a.634.634 0 0 0 .242.83l3.087 1.83v9.74a.633.633 0 0 0 .637.63h6.158v4.76a.637.637 0 0 0 1.274 0v-5.39a.632.632 0 0 0-.637-.63h-6.158v-9.46a.641.641 0 0 0-.309-.55l-2.891-1.71 3.133-6.21a.663.663 0 0 0 .067-.29 17.029 17.029 0 0 1 34.056 0 16.715 16.715 0 0 1-6.55 13.3.642.642 0 0 0-.244.5v10.44a.637.637 0 0 0 1.274 0v-10.14a18.019 18.019 0 0 0 1.433-26.92zm-12.939 2.09a8.7 8.7 0 0 0-3.354 16.77v1.41h-.722a.632.632 0 0 0-.637.63v4.71a3.344 3.344 0 0 0 3.354 3.33h2.718a3.344 3.344 0 0 0 3.355-3.33v-4.71a.633.633 0 0 0-.637-.63h-.722v-1.41a8.771 8.771 0 0 0 3.785-2.97.636.636 0 1 0-1.034-.74 7.529 7.529 0 0 1-3.6 2.68.624.624 0 0 0-.424.59v1.85h-4.162v-1.85a.624.624 0 0 0-.424-.59 7.474 7.474 0 1 1 9.784-5.16.623.623 0 0 0 .458.76.631.631 0 0 0 .776-.45 8.711 8.711 0 0 0-8.514-10.89zm3.44 23.52a2.079 2.079 0 0 1-2.081 2.07h-2.718a2.078 2.078 0 0 1-2.08-2.07v-.04h6.879v.04zm0-1.3h-6.879v-.76h6.879v.76zm-.722-2.78h.722v.76h-6.879v-.76h6.157zm1.359-12.03h-2.76v-3.41a.642.642 0 0 0-1.117-.41l-4.756 5.38a.639.639 0 0 0 .48 1.05h2.76v3.41a.635.635 0 0 0 1.116.41l4.756-5.38a.638.638 0 0 0-.481-1.05zm-4.119 4.34v-2.36a.632.632 0 0 0-.637-.63h-1.994l2.716-3.08v2.36a.632.632 0 0 0 .637.63h1.993zm.042-15.11a.632.632 0 0 0-.637.63v1.35a.637.637 0 0 0 1.274 0v-1.35a.632.632 0 0 0-.637-.63zm-6.756 4.49l-.961-.95a.634.634 0 0 0-.9 0 .624.624 0 0 0 0 .89l.96.95a.642.642 0 0 0 .935-.04.624.624 0 0 0-.036-.85zm-3.435 6.95h-1.359a.635.635 0 1 0 0 1.27h1.359a.635.635 0 1 0-.002-1.27zm3.435 7.33a.635.635 0 0 0-.9 0l-.96.95a.637.637 0 0 0-.034.86.648.648 0 0 0 .934.03l.961-.95a.624.624 0 0 0-.003-.89zm15.374.95l-.961-.95a.635.635 0 0 0-.9 0 .624.624 0 0 0 0 .89l.961.95a.633.633 0 0 0 .898-.89zm2.932-8.28h-1.359a.635.635 0 1 0 0 1.27h1.359a.635.635 0 1 0-.002-1.27zm-2.932-7.9a.635.635 0 0 0-.9 0l-.961.95a.628.628 0 0 0-.044.83.638.638 0 0 0 .945.06l.961-.95a.625.625 0 0 0-.003-.89z" transform="translate(-374.969 -3358)"/></symbol><symbol viewBox="0 0 41 41" id="research-05" xmlns="http://www.w3.org/2000/svg"><defs><style>.mcls-1{fill:#2b374d;fill-rule:evenodd}</style></defs><path class="mcls-1" d="M40.355 28.23a.645.645 0 0 0-.645.64v5.03h-5.286a.636.636 0 0 0-.644.63v5.2H13.838v-6a18.262 18.262 0 0 0 3.482.34 17.5 17.5 0 0 0 11.436-4.23H34a.636.636 0 0 0 .644-.63.644.644 0 0 0-.644-.64h-3.926a16.927 16.927 0 0 0 1.213-1.45.594.594 0 0 0 .134.02H34a.644.644 0 0 0 .644-.64.636.636 0 0 0-.644-.63h-1.862a16.977 16.977 0 0 0 1.147-2.21.624.624 0 0 0-.343-.83l-14.677-6.09 6.991-11.25h1.271l-6.314 10.16a.626.626 0 0 0 .3.91l15.367 6.38a.737.737 0 0 0 .25.05.65.65 0 0 0 .594-.39 16.808 16.808 0 0 0-.919-15.07 17.626 17.626 0 0 0-1.394-2.04h5.305v20.5a.645.645 0 0 0 1.29 0V4.86a.636.636 0 0 0-.645-.63h-6.876a.468.468 0 0 0-.167.02 17.24 17.24 0 0 0-3.516-2.8.642.642 0 0 0-.487-.08.631.631 0 0 0-.4.29l-1.6 2.57H26.04l.531-.86a.626.626 0 0 0-.213-.87A17.468 17.468 0 0 0 17.32 0 17.2 17.2 0 0 0 0 17.03a16.854 16.854 0 0 0 6.606 13.39.646.646 0 0 0 .906-.11.627.627 0 0 0-.108-.89 15.594 15.594 0 0 1-6.115-12.39A15.915 15.915 0 0 1 17.32 1.27a16.282 16.282 0 0 1 7.808 1.99L16.77 16.7a.634.634 0 0 0-.064.53.647.647 0 0 0 .363.39l14.761 6.12A16.185 16.185 0 0 1 10 31.06a.654.654 0 0 0-.868.28.625.625 0 0 0 .278.85 17.4 17.4 0 0 0 3.142 1.22v6.96a.636.636 0 0 0 .645.63h21.23a.759.759 0 0 0 .545-.27c.133-.13 5.833-5.73 5.895-5.81a.635.635 0 0 0 .136-.39v-5.66a.645.645 0 0 0-.648-.64zM29.666 2.87a15.616 15.616 0 0 1 6.1 18.65l-14.072-5.84zm5.4 35.97v-3.67h3.73zm-3.309-4.86h-9.971a.644.644 0 0 0-.644.64.636.636 0 0 0 .644.63h9.971a.636.636 0 0 0 .644-.63.644.644 0 0 0-.641-.64zm0 2.71h-9.971a.636.636 0 0 0-.644.63.644.644 0 0 0 .644.64h9.971a.644.644 0 0 0 .644-.64.636.636 0 0 0-.641-.63zM28.49 9.3a1.985 1.985 0 1 0 2.02 1.99 2.005 2.005 0 0 0-2.017-1.99zm0 2.7a.715.715 0 1 1 .731-.71.722.722 0 0 1-.728.71zm4.62 1.84a1.985 1.985 0 1 0 2.02 1.99 2.006 2.006 0 0 0-2.017-1.99zm0 2.71a.72.72 0 1 1 0-1.44.72.72 0 1 1 .003 1.44zm1.575-6.81a.648.648 0 0 0-.912 0l-6.7 6.59a.63.63 0 0 0 0 .9.668.668 0 0 0 .912 0l6.7-6.6a.618.618 0 0 0 .003-.89zm-23.729 4.88a.63.63 0 1 0 0-1.26H9.2v-.72a.645.645 0 0 0-1.289 0v.72h-.559a1.492 1.492 0 0 0-1.5 1.48v1.35a1.5 1.5 0 0 0 1.5 1.48h.559v1.77H6.149a.645.645 0 0 0-.645.64.636.636 0 0 0 .645.63h1.762v.72a.645.645 0 0 0 1.289 0v-.72h.559a1.492 1.492 0 0 0 1.5-1.48v-1.35a1.492 1.492 0 0 0-1.5-1.48H9.2v-1.78h1.762zM7.905 16.4h-.559a.21.21 0 0 1-.215-.21v-1.35a.219.219 0 0 1 .215-.22h.559v1.78zm1.848 1.27a.21.21 0 0 1 .215.21v1.35a.21.21 0 0 1-.215.21H9.2v-1.77h.559zm9.454 6.93a.636.636 0 0 0 .645-.63.645.645 0 0 0-.645-.64h-1.761v-.72a.645.645 0 0 0-1.29 0v.72H15.6a1.5 1.5 0 0 0-1.5 1.48v1.35a1.492 1.492 0 0 0 1.5 1.48h.559v1.78H14.4a.636.636 0 0 0-.645.63.645.645 0 0 0 .645.64h1.762v.71a.645.645 0 0 0 1.29 0v-.71h.558a1.5 1.5 0 0 0 1.5-1.48v-1.36a1.5 1.5 0 0 0-1.5-1.48h-.558V24.6h1.761zm-3.051 1.77H15.6a.21.21 0 0 1-.215-.21v-1.35a.21.21 0 0 1 .215-.21h.558v1.77zm1.848 1.27a.216.216 0 0 1 .215.21v1.36a.216.216 0 0 1-.215.21h-.558v-1.78h.558zm1.2-22.31a.644.644 0 0 0 .645-.64.636.636 0 0 0-.645-.63h-1.761v-.72a.645.645 0 0 0-1.29 0v.72H15.6a1.492 1.492 0 0 0-1.5 1.48v1.35a1.492 1.492 0 0 0 1.5 1.48h.559v1.77H14.4a.645.645 0 0 0-.645.64.636.636 0 0 0 .645.63h1.762v.72a.645.645 0 0 0 1.29 0v-.72h.558a1.491 1.491 0 0 0 1.5-1.48V8.58a1.491 1.491 0 0 0-1.5-1.48h-.558V5.33h1.761zM16.153 7.1H15.6a.21.21 0 0 1-.215-.21V5.54a.21.21 0 0 1 .215-.21h.558V7.1zm1.848 1.27a.21.21 0 0 1 .215.21v1.35a.21.21 0 0 1-.215.21h-.558V8.37h.558z"/></symbol><symbol viewBox="0 0 42 42" id="research-06" xmlns="http://www.w3.org/2000/svg"><defs><style>.ncls-1{fill:#2b374d;fill-rule:evenodd}</style></defs><path id="nForma_1" data-name="Forma 1" class="ncls-1" d="M1222.07 3377.78h-26.48a3.55 3.55 0 0 0-3.59 3.5v14.19a3.55 3.55 0 0 0 3.59 3.5h1.65l-.56 2.16a.674.674 0 0 0 .24.71.69.69 0 0 0 .45.16.8.8 0 0 0 .3-.06l6.54-2.97h17.86a3.55 3.55 0 0 0 3.59-3.5v-14.19a3.55 3.55 0 0 0-3.59-3.5zm2.16 17.69a2.143 2.143 0 0 1-2.16 2.12h-18.02a.8.8 0 0 0-.3.06l-5.32 2.41.42-1.61a.716.716 0 0 0-.13-.6.7.7 0 0 0-.56-.26h-2.57a2.151 2.151 0 0 1-2.17-2.12v-14.19a2.151 2.151 0 0 1 2.17-2.12h26.48a2.143 2.143 0 0 1 2.16 2.12v14.19zm-3.93-13.62h-22.94a.7.7 0 1 0 0 1.39h22.94a.7.7 0 1 0 0-1.39zm0 3.82h-22.94a.7.7 0 0 0-.71.7.7.7 0 0 0 .71.69h22.94a.7.7 0 0 0 .71-.69.711.711 0 0 0-.71-.7zm0 3.83h-22.94a.7.7 0 1 0 0 1.39h22.94a.7.7 0 1 0 0-1.39zm0 3.83h-22.94a.7.7 0 0 0-.71.69.7.7 0 0 0 .71.7h22.94a.711.711 0 0 0 .71-.7.7.7 0 0 0-.71-.69zm10.11-33.33h-11.95a3.551 3.551 0 0 0-3.59 3.51v8.32a3.55 3.55 0 0 0 3.59 3.5h3.05l5.72 2.59a.717.717 0 0 0 .29.06.7.7 0 0 0 .72-.68l.03-1.97h2.14a3.55 3.55 0 0 0 3.59-3.5v-8.32a3.551 3.551 0 0 0-3.59-3.51zm2.17 11.83a2.151 2.151 0 0 1-2.17 2.12h-2.85a.707.707 0 0 0-.71.68l-.02 1.58-4.86-2.2a.765.765 0 0 0-.3-.06h-3.21a2.151 2.151 0 0 1-2.17-2.12v-8.32a2.151 2.151 0 0 1 2.17-2.12h11.95a2.151 2.151 0 0 1 2.17 2.12v8.32zm-8.14-8.81a3.05 3.05 0 0 0-3.09 3.01.71.71 0 0 0 1.42 0 1.665 1.665 0 0 1 3.33 0 1.614 1.614 0 0 1-.78 1.38 3.246 3.246 0 0 0-1.7 2.94.705.705 0 0 0 .71.67h.03a.7.7 0 0 0 .68-.72 1.882 1.882 0 0 1 .99-1.69c.01-.01.02-.01.03-.02a2.962 2.962 0 0 0 1.46-2.56 3.048 3.048 0 0 0-3.08-3.01zm-.1 8.69a.744.744 0 0 0-.51.2.7.7 0 0 0-.2.49.663.663 0 0 0 .2.49.754.754 0 0 0 .51.21.73.73 0 0 0 .5-.21.672.672 0 0 0 .21-.49.707.707 0 0 0-.21-.49.72.72 0 0 0-.5-.2z" transform="translate(-1192 -3360)"/></symbol><symbol viewBox="0 0 239 227" id="unique-advantage" xmlns="http://www.w3.org/2000/svg"><defs><style>.ocls-1{fill:#2b374d;stroke:#f0f0f0;stroke-width:2px;fill-rule:evenodd}</style></defs><path class="ocls-1" d="M207.419 22.77v79.84H238V22.77h-30.581zm22.936 72.58h-15.291V30.03h15.291v65.32zm-61.162-35.86a89.182 89.182 0 0 0-7.645-5.83v-1.85h-2.878a95.39 95.39 0 0 0-50.638-14.52h-3.822v90.73h95.564v-3.63a82.961 82.961 0 0 0-2.959-21.78h2.959V37.29h-30.581v22.2zm-57.338 61.27V44.63a87.624 87.624 0 0 1 31.073 7.18h-11.96v50.8h30.58V62.94a80.592 80.592 0 0 1 7.645 6.74v32.93H188.9a76.251 76.251 0 0 1 3.142 18.15h-80.19zm42.048-61.7v36.29h-15.29V59.06H153.9zm22.936-14.51h15.29v50.8h-15.29v-50.8zm-146.05 97.23l32.489-30.85 5.406 5.14L36.2 146.91zm16.082-28.28c0-6-5.145-10.89-11.468-10.89s-11.468 4.89-11.468 10.89 5.146 10.89 11.468 10.89 11.468-4.89 11.468-10.89zm-15.29 0a3.828 3.828 0 1 1 3.822 3.63 3.733 3.733 0 0 1-3.822-3.63zm34.4 18.14c-6.323 0-11.468 4.89-11.468 10.89s5.145 10.89 11.468 10.89 11.467-4.89 11.467-10.89-5.142-10.89-11.464-10.89zm0 14.52a3.635 3.635 0 1 1 3.822-3.63 3.728 3.728 0 0 1-3.819 3.63zm102.663 41.53a83.357 83.357 0 0 0 15.837-48.79v-3.63h-87.92V51.81h-3.822a97.046 97.046 0 0 0-11.468.77V1H1v50.81h48.111l7.465 7.08C23.114 72.54 1 103.98 1 138.9 1 186.93 42.158 226 92.742 226a94.2 94.2 0 0 0 60.011-21.36l11.827 11.22a12.378 12.378 0 0 0 16.872 0 10.926 10.926 0 0 0 0-16.01zM52.276 44.55H8.645V8.26h64.984v56.56zm40.466 174.19c-46.372 0-84.1-35.81-84.1-79.84 0-32.99 21.544-62.59 53.81-74.42l18.819 17.86V59.86c2.557-.33 5.115-.6 7.645-.71v83.38h87.835a76.278 76.278 0 0 1-13.6 39.94l-6.1-5.79a20.589 20.589 0 0 0 .669-5.12c0-12-10.287-21.77-22.936-21.77s-22.935 9.77-22.935 21.77 10.286 21.78 22.935 21.78a23.915 23.915 0 0 0 5.394-.64l7.148 6.79a86.29 86.29 0 0 1-54.584 19.25zm57.338-47.18c0 8.01-6.857 14.52-15.29 14.52s-15.29-6.51-15.29-14.52 6.858-14.51 15.29-14.51 15.29 6.51 15.29 14.51zm25.967 39.17a4.448 4.448 0 0 1-6.062 0l-22.3-21.17a22.5 22.5 0 0 0 6.062-5.75l22.3 21.17a3.924 3.924 0 0 1 0 5.75zM16.29 15.52h49.694v7.25H16.29v-7.25zm0 14.51h49.694v7.26H16.29v-7.26zm114.678 137.91h7.645v7.25h-7.645v-7.25zm-34.4 0h7.646v7.25h-7.646v-7.25zm-15.29 0h7.645v7.25h-7.645v-7.25zm-15.29 0h7.645v7.25h-7.645v-7.25z"/></symbol><symbol viewBox="0 0 22.03 12" id="vk" xmlns="http://www.w3.org/2000/svg"><defs><style>.pcls-1{fill:#fff;fill-rule:evenodd;opacity:.3}</style></defs><path class="pcls-1" d="M18.93 7.63c.73.69 1.5 1.33 2.16 2.09a5.813 5.813 0 0 1 .77 1.07.762.762 0 0 1-.49 1.2h-3.21a2.572 2.572 0 0 1-2.04-.8c-.44-.44-.85-.9-1.28-1.35a3.067 3.067 0 0 0-.58-.5.686.686 0 0 0-1.07.25 3.164 3.164 0 0 0-.33 1.44.85.85 0 0 1-1.03.96 8.573 8.573 0 0 1-4.59-.95 10.2 10.2 0 0 1-3.09-2.79A37.4 37.4 0 0 1 .09 1.28C-.17.73.02.43.65.42 1.7.4 2.74.4 3.79.42a.912.912 0 0 1 .87.63 18.943 18.943 0 0 0 2.13 3.8 3.433 3.433 0 0 0 .81.85.5.5 0 0 0 .83-.24 2.392 2.392 0 0 0 .18-.8 11.841 11.841 0 0 0-.05-2.79A1.18 1.18 0 0 0 7.53.81C7.22.75 7.27.64 7.42.47A1.156 1.156 0 0 1 8.4 0h3.63a.843.843 0 0 1 .77.91l.01 3.88a1.11 1.11 0 0 0 .51.99.725.725 0 0 0 .72-.34 11.986 11.986 0 0 0 2.04-3.02c.25-.48.46-.98.66-1.47a.777.777 0 0 1 .82-.54h3.49a1.564 1.564 0 0 1 .31.02c.59.1.75.34.57.89a8.321 8.321 0 0 1-1.39 2.32c-.58.77-1.2 1.52-1.78 2.3a1.03 1.03 0 0 0 .17 1.69z"/></symbol></svg>