<svg xmlns="http://www.w3.org/2000/svg" width="139" height="141" viewBox="0 0 139 141"><defs><style>.cls-1{fill:#c19f63;fill-rule:evenodd}</style></defs><path id="Forma_1" data-name="Forma 1" class="cls-1" d="M1794.5 1946a48.382 48.382 0 0 1 34.63 82.29l7.89 7.87a10.95 10.95 0 0 1 5.83-1.86 10.8 10.8 0 0 1 8 3.19l32.25 32.2a6.482 6.482 0 0 1 0 9.17l-6.26 6.24a6.494 6.494 0 0 1-9.18 0l-31.89-31.85a11.23 11.23 0 0 1-1.68-14.15l-7.98-7.98a48.448 48.448 0 1 1-31.61-85.12zm44.2 104.33l31.89 31.84a2.342 2.342 0 0 0 3.32 0l6.25-6.24a2.342 2.342 0 0 0 0-3.32l-32.24-32.19a6.7 6.7 0 0 0-4.78-1.98h-.19a6.76 6.76 0 0 0-4.86 2.24 7.119 7.119 0 0 0 .61 9.65zm-44.2-11.62a44.285 44.285 0 1 0-44.35-44.28 44.366 44.366 0 0 0 44.35 44.28zm0-83.88a39.6 39.6 0 1 1-39.66 39.6 39.669 39.669 0 0 1 39.66-39.6zm0 75.05a35.455 35.455 0 1 0-35.51-35.45 35.519 35.519 0 0 0 35.51 35.45zm-29.99-42.55a31 31 0 0 1 22.88-22.85 2.07 2.07 0 0 1 .95 4.03 26.778 26.778 0 0 0-19.79 19.77 2.08 2.08 0 0 1-2.02 1.59 2.607 2.607 0 0 1-.48-.05 2.079 2.079 0 0 1-1.54-2.49zm12.3 5.03h15.62v-15.59a2.07 2.07 0 0 1 4.14 0v15.59h15.61a2.065 2.065 0 1 1 0 4.13h-15.61v15.59a2.07 2.07 0 0 1-4.14 0v-15.59h-15.62a2.065 2.065 0 1 1 0-4.13z" transform="translate(-1746 -1946)"/></svg>