<svg xmlns="http://www.w3.org/2000/svg" width="590" height="418" viewBox="0 0 590 418"><defs><style>.cls-1{fill:#fff;fill-rule:evenodd}</style></defs><g id="Монтажная_область_1" data-name="Монтажная область 1"><path id="Forma_1" data-name="Forma 1" class="cls-1" d="M658.217 352.523l-58.208-141.17a7.778 7.778 0 0 0-10.178-4.235L396 287.774A7.836 7.836 0 0 0 391.788 298L450 439.169a7.765 7.765 0 0 0 10.178 4.235L654 362.748a7.839 7.839 0 0 0 4.217-10.225zM536.735 353.7L418.25 295.457l161.258-67.1zm1.082 17.955a7.778 7.778 0 0 0 10.793-4.491l16.69-48.914 67.1 36.55-162.538 67.635 21.719-73.507zm97.874-32.867l-65.266-35.551 22.917-67.158zm-221.784-28.044l63.485 31.208-21.128 71.507zm-86.117 18.181h45.217a7.825 7.825 0 0 0 0-15.65H327.79a7.825 7.825 0 0 0 0 15.65zm77.454 73.327H327.79a7.825 7.825 0 0 0 0 15.65h77.454a7.825 7.825 0 0 0 0-15.65zm-77.454-28.838h61.34a7.826 7.826 0 0 0 0-15.651h-61.34a7.826 7.826 0 0 0 0 15.651z" transform="translate(-320 -26)"/><path id="Forma_1_copy_2" data-name="Forma 1 copy 2" class="cls-1" d="M851.726 234.009l-26.8-64.793a3.585 3.585 0 0 0-4.686-1.944l-89.25 37.019a3.593 3.593 0 0 0-1.941 4.692l26.806 64.793a3.579 3.579 0 0 0 4.686 1.943l89.244-37.019a3.593 3.593 0 0 0 1.941-4.691zm-55.936.54l-54.556-26.733 74.251-30.8zm.5 8.241a3.586 3.586 0 0 0 4.97-2.061l7.685-22.451 30.893 16.775L765 266.1l10-33.737zm45.066-15.085L811.3 211.388l10.552-30.823zm-102.12-12.872l29.231 14.324-9.728 32.819zm-39.653 8.345H720.4a3.592 3.592 0 0 0 0-7.184h-20.819a3.592 3.592 0 0 0 0 7.184zm35.664 33.654h-35.666a3.592 3.592 0 0 0 0 7.184h35.664a3.592 3.592 0 0 0 0-7.184zM699.581 243.6h28.244a3.592 3.592 0 0 0 0-7.183h-28.244a3.592 3.592 0 0 0 0 7.183z" transform="translate(-320 -26)"/><path id="Forma_1_copy_12" data-name="Forma 1 copy 12" class="cls-1" d="M909.8 75.719l-19.847-48.075a2.652 2.652 0 0 0-3.469-1.442l-66.078 27.467a2.668 2.668 0 0 0-1.437 3.481l19.846 48.075a2.651 2.651 0 0 0 3.47 1.442L908.36 79.2a2.668 2.668 0 0 0 1.44-3.481zm-41.414.4L827.99 56.285l54.974-22.851zm.369 6.114a2.652 2.652 0 0 0 3.679-1.529l5.69-16.657 22.873 12.446-55.412 23.033 7.4-25.032zm33.366-11.193l-22.25-12.107 7.812-22.87zm-75.609-9.55l21.643 10.627-7.2 24.351zm-29.358 6.191h15.416a2.665 2.665 0 0 0 0-5.33h-15.419a2.665 2.665 0 0 0 0 5.331zm26.405 24.971h-26.408a2.665 2.665 0 0 0 0 5.33h26.405a2.665 2.665 0 0 0 0-5.329zm-26.405-9.821h20.912a2.665 2.665 0 0 0 0-5.33h-20.915a2.665 2.665 0 0 0 0 5.332z" transform="translate(-320 -26)"/></g></svg>