<svg xmlns="http://www.w3.org/2000/svg" width="19" height="18" viewBox="0 0 19 18">
  <defs>
    <style>
      .cls-1 {
        fill: #fff;
        fill-rule: evenodd;
        opacity: 0.5;
      }
    </style>
  </defs>
  <path id="Forma_1_copy_2" data-name="Forma 1 copy 2" class="cls-1" d="M375.671,362h17.658a0.672,0.672,0,0,0,.671-0.688v-15.35a0.672,0.672,0,0,0-.671-0.687h-3.322v-0.588a0.671,0.671,0,1,0-1.342,0v0.588h-8.216v-0.588a0.671,0.671,0,1,0-1.342,0v0.588h-3.436a0.671,0.671,0,0,0-.671.687v15.367A0.679,0.679,0,0,0,375.671,362Zm0.671-15.35h2.765v0.369a0.671,0.671,0,1,0,1.342,0V346.65h8.216v0.369a0.671,0.671,0,1,0,1.342,0V346.65h2.667v1.778H376.342V346.65Zm0,3.154h16.316v10.837H376.342V349.8Zm12.994,3.154H379.68a0.688,0.688,0,0,0,0,1.376h9.656A0.688,0.688,0,0,0,389.336,352.958Zm-4.828,3.321H379.68a0.688,0.688,0,0,0,0,1.376h4.828A0.688,0.688,0,0,0,384.508,356.279Z" transform="translate(-375 -344)"/>
</svg>
