<svg xmlns="http://www.w3.org/2000/svg" width="15" height="17" viewBox="0 0 15 17">
  <metadata><?xpacket begin="﻿" id="W5M0MpCehiHzreSzNTczkc9d"?>
<x:xmpmeta xmlns:x="adobe:ns:meta/" x:xmptk="Adobe XMP Core 5.6-c138 79.159824, 2016/09/14-01:09:01        ">
   <rdf:RDF xmlns:rdf="http://www.w3.org/1999/02/22-rdf-syntax-ns#">
      <rdf:Description rdf:about=""/>
   </rdf:RDF>
</x:xmpmeta>
                                                                                                    
                                                                                                    
                                                                                                    
                                                                                                    
                                                                                                    
                                                                                                    
                                                                                                    
                                                                                                    
                                                                                                    
                                                                                                    
                                                                                                    
                                                                                                    
                                                                                                    
                                                                                                    
                                                                                                    
                                                                                                    
                                                                                                    
                                                                                                    
                                                                                                    
                                                                                                    
                           
<?xpacket end="w"?></metadata>
<defs>
    <style>
      .cls-1 {
        fill-rule: evenodd;
      }
    </style>
  </defs>
  <path id="Forma_1" data-name="Forma 1" class="cls-1" d="M1018.74,1202.49a5.142,5.142,0,0,1-7.26,0,5.3,5.3,0,0,1,0-7.36l6.93-7.02a3.7,3.7,0,0,1,5.27,0,3.834,3.834,0,0,1,0,5.35l-5.6,5.68a2.283,2.283,0,0,1-3.3,0,2.348,2.348,0,0,1,0-3.34l4.94-5.02,0.99,1.01-4.94,5.01a0.9,0.9,0,0,0,0,1.34,0.876,0.876,0,0,0,1.32,0l5.6-5.69a2.348,2.348,0,0,0,0-3.34,2.283,2.283,0,0,0-3.3,0l-6.92,7.02a3.834,3.834,0,0,0,0,5.35,3.712,3.712,0,0,0,5.28,0l6.26-6.35,0.99,1Z" transform="translate(-1010 -1187)"/>
</svg>
