<svg xmlns="http://www.w3.org/2000/svg" width="10.5" height="19.19" viewBox="0 0 10.5 19.19">
  <metadata><?xpacket begin="﻿" id="W5M0MpCehiHzreSzNTczkc9d"?>
<x:xmpmeta xmlns:x="adobe:ns:meta/" x:xmptk="Adobe XMP Core 5.6-c138 79.159824, 2016/09/14-01:09:01        ">
   <rdf:RDF xmlns:rdf="http://www.w3.org/1999/02/22-rdf-syntax-ns#">
      <rdf:Description rdf:about=""/>
   </rdf:RDF>
</x:xmpmeta>
                                                                                                    
                                                                                                    
                                                                                                    
                                                                                                    
                                                                                                    
                                                                                                    
                                                                                                    
                                                                                                    
                                                                                                    
                                                                                                    
                                                                                                    
                                                                                                    
                                                                                                    
                                                                                                    
                                                                                                    
                                                                                                    
                                                                                                    
                                                                                                    
                                                                                                    
                                                                                                    
                           
<?xpacket end="w"?></metadata>
<defs>
    <style>
      .cls-1 {
        fill: #fff;
        fill-rule: evenodd;
        opacity: 0.3;
      }
    </style>
  </defs>
  <path id="Forma_1" data-name="Forma 1" class="cls-1" d="M1766.7,1979.8h-2.52a4.4,4.4,0,0,0-4.67,4.72v2.18h-2.53a0.4,0.4,0,0,0-.4.39v3.16a0.393,0.393,0,0,0,.4.39h2.53v7.97a0.4,0.4,0,0,0,.4.39h3.31a0.4,0.4,0,0,0,.4-0.39v-7.97h2.96a0.393,0.393,0,0,0,.4-0.39v-3.16a0.357,0.357,0,0,0-.12-0.27,0.363,0.363,0,0,0-.28-0.12h-2.96v-1.85c0-.88.21-1.33,1.38-1.33h1.7a0.4,0.4,0,0,0,.4-0.4v-2.93A0.4,0.4,0,0,0,1766.7,1979.8Z" transform="translate(-1756.59 -1979.81)"/>
</svg>
