<svg xmlns="http://www.w3.org/2000/svg" width="58" height="57" viewBox="0 0 58 57">
  <metadata><?xpacket begin="﻿" id="W5M0MpCehiHzreSzNTczkc9d"?>
<x:xmpmeta xmlns:x="adobe:ns:meta/" x:xmptk="Adobe XMP Core 5.6-c138 79.159824, 2016/09/14-01:09:01        ">
   <rdf:RDF xmlns:rdf="http://www.w3.org/1999/02/22-rdf-syntax-ns#">
      <rdf:Description rdf:about=""/>
   </rdf:RDF>
</x:xmpmeta>
                                                                                                    
                                                                                                    
                                                                                                    
                                                                                                    
                                                                                                    
                                                                                                    
                                                                                                    
                                                                                                    
                                                                                                    
                                                                                                    
                                                                                                    
                                                                                                    
                                                                                                    
                                                                                                    
                                                                                                    
                                                                                                    
                                                                                                    
                                                                                                    
                                                                                                    
                                                                                                    
                           
<?xpacket end="w"?></metadata>
<defs>
    <style>
      .cls-1 {
        fill: #fff;
        fill-rule: evenodd;
      }
    </style>
  </defs>
  <g id="Монтажная_область_1" data-name="Монтажная область 1">
    <g id="call">
      <path class="cls-1" d="M112.337,0.013H98.959a1.675,1.675,0,0,0,0,3.351H108.3L91.087,20.611a1.674,1.674,0,0,0,2.365,2.369L110.665,5.734v9.359a1.672,1.672,0,1,0,3.344,0V1.688A1.673,1.673,0,0,0,112.337.013Z" transform="translate(-56)"/>
      <path class="cls-1" d="M104.682,34a5.946,5.946,0,0,0-4.31-1.976,6.147,6.147,0,0,0-4.361,1.964L91.981,38c-0.331-.179-0.663-0.346-0.982-0.511-0.459-.229-0.893-0.445-1.263-0.675a43.819,43.819,0,0,1-10.495-9.567A25.873,25.873,0,0,1,75.8,21.812c1.046-.958,2.015-1.952,2.958-2.908,0.357-.359.714-0.729,1.072-1.085a5.855,5.855,0,0,0,0-8.829L76.347,5.508c-0.4-.4-0.8-0.8-1.186-1.212-0.765-.792-1.568-1.608-2.4-2.372A6.032,6.032,0,0,0,68.492.048a6.243,6.243,0,0,0-4.336,1.876l-0.025.025L59.8,6.325a9.334,9.334,0,0,0-2.767,5.933,22.366,22.366,0,0,0,1.632,9.465A54.951,54.951,0,0,0,68.416,38,60.01,60.01,0,0,0,88.4,53.655,31.133,31.133,0,0,0,99.62,56.972c0.268,0.013.548,0.025,0.8,0.025a9.6,9.6,0,0,0,7.358-3.164c0.013-.025.038-0.039,0.051-0.063a28.755,28.755,0,0,1,2.231-2.31c0.549-.524,1.11-1.073,1.658-1.646a6.369,6.369,0,0,0,1.926-4.414,6.131,6.131,0,0,0-1.964-4.376Zm4.565,13.435c-0.013,0-.013.013,0,0-0.5.535-1.007,1.022-1.555,1.557a33.026,33.026,0,0,0-2.462,2.551,6.143,6.143,0,0,1-4.794,2.028c-0.192,0-.4,0-0.587-0.013A27.655,27.655,0,0,1,89.9,50.567,56.621,56.621,0,0,1,71.081,35.82a51.778,51.778,0,0,1-9.181-15.3,18.224,18.224,0,0,1-1.428-7.986,5.853,5.853,0,0,1,1.76-3.788L66.579,4.4a2.905,2.905,0,0,1,1.939-.905,2.729,2.729,0,0,1,1.862.893l0.038,0.039c0.778,0.728,1.517,1.479,2.3,2.283,0.395,0.409.8,0.817,1.211,1.237l3.481,3.484c1.352,1.353,1.352,2.6,0,3.954-0.37.369-.727,0.74-1.1,1.1-1.071,1.1-2.091,2.118-3.2,3.114a0.325,0.325,0,0,0-.064.063,2.6,2.6,0,0,0-.663,2.9l0.038,0.115a27.937,27.937,0,0,0,4.119,6.724L76.552,29.4A46.791,46.791,0,0,0,87.875,39.71a16.884,16.884,0,0,0,1.568.855c0.459,0.23.893,0.448,1.263,0.676,0.051,0.025.1,0.064,0.153,0.089a2.771,2.771,0,0,0,1.262.32,2.723,2.723,0,0,0,1.938-.882l4.361-4.362a2.884,2.884,0,0,1,1.926-.958,2.6,2.6,0,0,1,1.836.932l0.025,0.026,7.026,7.029A2.523,2.523,0,0,1,109.247,47.43Z" transform="translate(-56)"/>
    </g>
  </g>
</svg>
