<svg xmlns="http://www.w3.org/2000/svg" width="19" height="18" viewBox="0 0 19 18">
  <metadata><?xpacket begin="﻿" id="W5M0MpCehiHzreSzNTczkc9d"?>
<x:xmpmeta xmlns:x="adobe:ns:meta/" x:xmptk="Adobe XMP Core 5.6-c138 79.159824, 2016/09/14-01:09:01        ">
   <rdf:RDF xmlns:rdf="http://www.w3.org/1999/02/22-rdf-syntax-ns#">
      <rdf:Description rdf:about=""/>
   </rdf:RDF>
</x:xmpmeta>
                                                                                                    
                                                                                                    
                                                                                                    
                                                                                                    
                                                                                                    
                                                                                                    
                                                                                                    
                                                                                                    
                                                                                                    
                                                                                                    
                                                                                                    
                                                                                                    
                                                                                                    
                                                                                                    
                                                                                                    
                                                                                                    
                                                                                                    
                                                                                                    
                                                                                                    
                                                                                                    
                           
<?xpacket end="w"?></metadata>
<defs>
    <style>
      .cls-1 {
        fill: #fff;
        fill-rule: evenodd;
      }
    </style>
  </defs>
  <path id="Forma_1" data-name="Forma 1" class="cls-1" d="M1724.01,1990.04v6.97h-4.08v-6.5c0-1.63-.58-2.75-2.06-2.75a2.215,2.215,0,0,0-2.09,1.48,2.668,2.668,0,0,0-.14.98v6.79h-4.07s0.05-11.01,0-12.15h4.07v1.72a0.076,0.076,0,0,1-.02.04h0.02v-0.04a4.064,4.064,0,0,1,3.68-2.01C1722,1984.57,1724.01,1986.31,1724.01,1990.04Zm-16.7-11.04a2.107,2.107,0,1,0-.06,4.2h0.03A2.108,2.108,0,1,0,1707.31,1979Zm-2.07,18.01h4.08v-12.15h-4.08v12.15Z" transform="translate(-1705 -1979)"/>
</svg>
