<svg xmlns="http://www.w3.org/2000/svg" width="41" height="41" viewBox="0 0 41 41">
  <metadata><?xpacket begin="﻿" id="W5M0MpCehiHzreSzNTczkc9d"?>
<x:xmpmeta xmlns:x="adobe:ns:meta/" x:xmptk="Adobe XMP Core 5.6-c138 79.159824, 2016/09/14-01:09:01        ">
   <rdf:RDF xmlns:rdf="http://www.w3.org/1999/02/22-rdf-syntax-ns#">
      <rdf:Description rdf:about=""/>
   </rdf:RDF>
</x:xmpmeta>
                                                                                                    
                                                                                                    
                                                                                                    
                                                                                                    
                                                                                                    
                                                                                                    
                                                                                                    
                                                                                                    
                                                                                                    
                                                                                                    
                                                                                                    
                                                                                                    
                                                                                                    
                                                                                                    
                                                                                                    
                                                                                                    
                                                                                                    
                                                                                                    
                                                                                                    
                                                                                                    
                           
<?xpacket end="w"?></metadata>
<defs>
    <style>
      .cls-1 {
        fill: #2b374d;
        fill-rule: evenodd;
      }
    </style>
  </defs>
  <path class="cls-1" d="M823.355,3387.23a0.645,0.645,0,0,0-.645.64v5.03h-5.286a0.636,0.636,0,0,0-.644.63v5.2H796.838v-6a18.262,18.262,0,0,0,3.482.34,17.5,17.5,0,0,0,11.436-4.23H817a0.636,0.636,0,0,0,.644-0.63,0.644,0.644,0,0,0-.644-0.64h-3.926a16.927,16.927,0,0,0,1.213-1.45,0.594,0.594,0,0,0,.134.02H817a0.644,0.644,0,0,0,.644-0.64,0.636,0.636,0,0,0-.644-0.63h-1.862a16.977,16.977,0,0,0,1.147-2.21,0.624,0.624,0,0,0-.343-0.83l-14.677-6.09,6.991-11.25h1.271l-6.314,10.16a0.626,0.626,0,0,0,.3.91l15.367,6.38a0.737,0.737,0,0,0,.25.05,0.65,0.65,0,0,0,.594-0.39,16.808,16.808,0,0,0-.919-15.07,17.626,17.626,0,0,0-1.394-2.04h5.305v20.5a0.645,0.645,0,0,0,1.29,0v-21.13a0.636,0.636,0,0,0-.645-0.63h-6.876a0.468,0.468,0,0,0-.167.02,17.24,17.24,0,0,0-3.516-2.8,0.642,0.642,0,0,0-.487-0.08,0.631,0.631,0,0,0-.4.29l-1.6,2.57H809.04l0.531-.86a0.626,0.626,0,0,0-.213-0.87,17.468,17.468,0,0,0-9.038-2.5A17.2,17.2,0,0,0,783,3376.03a16.854,16.854,0,0,0,6.606,13.39,0.646,0.646,0,0,0,.906-0.11,0.627,0.627,0,0,0-.108-0.89,15.594,15.594,0,0,1-6.115-12.39,15.915,15.915,0,0,1,16.031-15.76,16.282,16.282,0,0,1,7.808,1.99l-8.358,13.44a0.634,0.634,0,0,0-.064.53,0.647,0.647,0,0,0,.363.39l14.761,6.12A16.185,16.185,0,0,1,793,3390.06a0.654,0.654,0,0,0-.868.28,0.625,0.625,0,0,0,.278.85,17.4,17.4,0,0,0,3.142,1.22v6.96a0.636,0.636,0,0,0,.645.63h21.23a0.759,0.759,0,0,0,.545-0.27c0.133-.13,5.833-5.73,5.895-5.81a0.635,0.635,0,0,0,.136-0.39v-5.66A0.645,0.645,0,0,0,823.355,3387.23Zm-10.689-25.36a15.616,15.616,0,0,1,6.1,18.65l-14.072-5.84Zm5.4,35.97v-3.67h3.73Zm-3.309-4.86h-9.971a0.644,0.644,0,0,0-.644.64,0.636,0.636,0,0,0,.644.63h9.971a0.636,0.636,0,0,0,.644-0.63A0.644,0.644,0,0,0,814.76,3392.98Zm0,2.71h-9.971a0.636,0.636,0,0,0-.644.63,0.644,0.644,0,0,0,.644.64h9.971a0.644,0.644,0,0,0,.644-0.64A0.636,0.636,0,0,0,814.76,3395.69Zm-3.267-27.39a1.985,1.985,0,1,0,2.02,1.99A2.005,2.005,0,0,0,811.493,3368.3Zm0,2.7a0.715,0.715,0,1,1,.731-0.71A0.722,0.722,0,0,1,811.493,3371Zm4.62,1.84a1.985,1.985,0,1,0,2.02,1.99A2.006,2.006,0,0,0,816.113,3372.84Zm0,2.71a0.72,0.72,0,1,1,0-1.44A0.72,0.72,0,1,1,816.113,3375.55Zm1.575-6.81a0.648,0.648,0,0,0-.912,0l-6.7,6.59a0.63,0.63,0,0,0,0,.9,0.668,0.668,0,0,0,.912,0l6.7-6.6A0.618,0.618,0,0,0,817.688,3368.74Zm-23.729,4.88a0.63,0.63,0,1,0,0-1.26H792.2v-0.72a0.645,0.645,0,0,0-1.289,0v0.72h-0.559a1.492,1.492,0,0,0-1.5,1.48v1.35a1.5,1.5,0,0,0,1.5,1.48h0.559v1.77h-1.762a0.645,0.645,0,0,0-.645.64,0.636,0.636,0,0,0,.645.63h1.762v0.72a0.645,0.645,0,0,0,1.289,0v-0.72h0.559a1.492,1.492,0,0,0,1.5-1.48v-1.35a1.492,1.492,0,0,0-1.5-1.48H792.2v-1.78h1.762Zm-3.051,1.78h-0.559a0.21,0.21,0,0,1-.215-0.21v-1.35a0.219,0.219,0,0,1,.215-0.22h0.559v1.78Zm1.848,1.27a0.21,0.21,0,0,1,.215.21v1.35a0.21,0.21,0,0,1-.215.21H792.2v-1.77h0.559Zm9.454,6.93a0.636,0.636,0,0,0,.645-0.63,0.645,0.645,0,0,0-.645-0.64h-1.761v-0.72a0.645,0.645,0,0,0-1.29,0v0.72H798.6a1.5,1.5,0,0,0-1.5,1.48v1.35a1.492,1.492,0,0,0,1.5,1.48h0.559v1.78H797.4a0.636,0.636,0,0,0-.645.63,0.645,0.645,0,0,0,.645.64h1.762v0.71a0.645,0.645,0,0,0,1.29,0v-0.71h0.558a1.5,1.5,0,0,0,1.5-1.48v-1.36a1.5,1.5,0,0,0-1.5-1.48h-0.558v-1.77h1.761Zm-3.051,1.77H798.6a0.21,0.21,0,0,1-.215-0.21v-1.35a0.21,0.21,0,0,1,.215-0.21h0.558v1.77h0Zm1.848,1.27a0.216,0.216,0,0,1,.215.21v1.36a0.216,0.216,0,0,1-.215.21h-0.558v-1.78h0.558Zm1.2-22.31a0.644,0.644,0,0,0,.645-0.64,0.636,0.636,0,0,0-.645-0.63h-1.761v-0.72a0.645,0.645,0,0,0-1.29,0v0.72H798.6a1.492,1.492,0,0,0-1.5,1.48v1.35a1.492,1.492,0,0,0,1.5,1.48h0.559v1.77H797.4a0.645,0.645,0,0,0-.645.64,0.636,0.636,0,0,0,.645.63h1.762v0.72a0.645,0.645,0,0,0,1.29,0v-0.72h0.558a1.491,1.491,0,0,0,1.5-1.48v-1.35a1.491,1.491,0,0,0-1.5-1.48h-0.558v-1.77h1.761Zm-3.051,1.77H798.6a0.21,0.21,0,0,1-.215-0.21v-1.35a0.21,0.21,0,0,1,.215-0.21h0.558v1.77h0Zm1.848,1.27a0.21,0.21,0,0,1,.215.21v1.35a0.21,0.21,0,0,1-.215.21h-0.558v-1.77h0.558Z" transform="translate(-783 -3359)"/>
</svg>
