<svg xmlns="http://www.w3.org/2000/svg" width="44" height="37" viewBox="0 0 44 37">
  <metadata><?xpacket begin="﻿" id="W5M0MpCehiHzreSzNTczkc9d"?>
<x:xmpmeta xmlns:x="adobe:ns:meta/" x:xmptk="Adobe XMP Core 5.6-c138 79.159824, 2016/09/14-01:09:01        ">
   <rdf:RDF xmlns:rdf="http://www.w3.org/1999/02/22-rdf-syntax-ns#">
      <rdf:Description rdf:about=""/>
   </rdf:RDF>
</x:xmpmeta>
                                                                                                    
                                                                                                    
                                                                                                    
                                                                                                    
                                                                                                    
                                                                                                    
                                                                                                    
                                                                                                    
                                                                                                    
                                                                                                    
                                                                                                    
                                                                                                    
                                                                                                    
                                                                                                    
                                                                                                    
                                                                                                    
                                                                                                    
                                                                                                    
                                                                                                    
                                                                                                    
                           
<?xpacket end="w"?></metadata>
<defs>
    <style>
      .cls-1 {
        fill: #2b374d;
        fill-rule: evenodd;
      }
    </style>
  </defs>
  <path id="Forma_1" data-name="Forma 1" class="cls-1" d="M819.568,3122a6.05,6.05,0,0,0,0,12.1,6.077,6.077,0,0,0,6.06-6.07A6.01,6.01,0,0,0,819.568,3122Zm0,10.77a4.72,4.72,0,1,1,4.732-4.7A4.734,4.734,0,0,1,819.568,3132.77Zm1.909-3.79a1.161,1.161,0,0,0-.124-0.33,1.055,1.055,0,0,0-.167-0.29c-0.083-.08-0.124-0.17-0.207-0.25a0.763,0.763,0,0,0-.291-0.21,1.049,1.049,0,0,0-.29-0.16c-0.125-.04-0.208-0.13-0.332-0.17a2.892,2.892,0,0,1-.332-0.12,0.338,0.338,0,0,1-.166-0.09c-0.042-.04-0.125-0.04-0.166-0.08s-0.125-.04-0.166-0.08a1.564,1.564,0,0,0-.125-0.13,0.207,0.207,0,0,1-.083-0.16,0.277,0.277,0,0,1-.041-0.17v-0.21c0-.04.041-0.12,0.041-0.17,0.042-.04.042-0.12,0.083-0.16a1.564,1.564,0,0,0,.125-0.13,0.321,0.321,0,0,1,.207-0.08,0.388,0.388,0,0,1,.208-0.04H819.9a0.384,0.384,0,0,1,.207.04,1.894,1.894,0,0,1,.208.04c0.041,0,.124.04,0.166,0.04a0.825,0.825,0,0,1,.166.05l0.207,0.08,0.042-.25,0.083-.67v-0.16l-0.166-.04c-0.042,0-.125-0.05-0.166-0.05a0.983,0.983,0,0,0-.166-0.04,1.894,1.894,0,0,0-.208-0.04c-0.083,0-.124-0.04-0.207-0.04h-0.042v-0.79h-1v0.83h-0.041a1.243,1.243,0,0,0-.374.17,0.677,0.677,0,0,0-.291.21,1.493,1.493,0,0,0-.249.29,0.779,0.779,0,0,0-.166.33c-0.041.12-.083,0.25-0.124,0.37a1.429,1.429,0,0,0-.042.42,0.893,0.893,0,0,0,.042.33,0.975,0.975,0,0,0,.124.33c0.042,0.09.125,0.21,0.166,0.3,0.083,0.08.125,0.16,0.208,0.24a0.671,0.671,0,0,0,.291.21,0.869,0.869,0,0,0,.29.17,1.652,1.652,0,0,1,.332.17,2.892,2.892,0,0,1,.332.12,0.316,0.316,0,0,1,.166.08,1.284,1.284,0,0,1,.166.09,0.222,0.222,0,0,0,.125.08l0.124,0.12a0.842,0.842,0,0,1,.083.17,1.515,1.515,0,0,1,.042.21v0.21a0.3,0.3,0,0,1-.083.16c-0.042.04-.083,0.09-0.125,0.13a0.564,0.564,0,0,1-.166.12c-0.041.04-.124,0.04-0.166,0.08a1.5,1.5,0,0,1-.207.05h-0.54a1.5,1.5,0,0,1-.207-0.05,0.6,0.6,0,0,1-.249-0.08c-0.084-.04-0.167-0.04-0.25-0.08-0.041,0-.083-0.04-0.124-0.04s-0.083-.04-0.125-0.04l-0.249-.13-0.041.29-0.083.75v0.12l0.124,0.05a0.518,0.518,0,0,1,.374.04,0.789,0.789,0,0,0,.29.08c0.084,0.04.208,0.04,0.333,0.08a0.767,0.767,0,0,0,.332.05h0.083v0.83h1v-0.88h0.041a1.506,1.506,0,0,0,.374-0.16,1.55,1.55,0,0,0,.332-0.21,1.867,1.867,0,0,0,.249-0.29,2.469,2.469,0,0,0,.208-0.33c0.041-.13.083-0.25,0.124-0.38a1.267,1.267,0,0,0,.041-0.41A0.968,0.968,0,0,0,821.477,3128.98Zm-4.815,5.91a0.7,0.7,0,0,0-.954-0.13l-6.725,5.37-8.675-3.62a0.682,0.682,0,0,0-.622.08l-9.3,6.65a0.673,0.673,0,0,0-.166.92,0.6,0.6,0,0,0,.54.29,0.626,0.626,0,0,0,.373-0.13l9.007-6.44,8.717,3.62a0.741,0.741,0,0,0,.664-0.09l7.015-5.57A0.7,0.7,0,0,0,816.662,3134.89Zm9.713,22.78H823.3v-19.25a0.654,0.654,0,0,0-.664-0.66h-6.1a0.654,0.654,0,0,0-.664.66v19.25h-2.242v-12.6a0.654,0.654,0,0,0-.664-0.66h-6.143a0.654,0.654,0,0,0-.664.66v12.6H803.92v-13.59a0.657,0.657,0,0,0-.665-0.67h-6.1a0.656,0.656,0,0,0-.664.67v13.59h-2.242v-9.69a0.654,0.654,0,0,0-.664-0.66h-6.143a0.655,0.655,0,0,0-.664.66v9.69h-3.113a0.665,0.665,0,0,0,0,1.33h42.669a0.656,0.656,0,0,0,.664-0.67A0.6,0.6,0,0,0,826.375,3157.67Zm-33.5,0h-4.774v-9.02h4.774v9.02Zm9.712,0h-4.773v-12.93h4.773v12.93Zm9.671,0h-4.773v-11.93h4.773v11.93Zm9.713,0H817.2v-18.58h4.773v18.58Z" transform="translate(-783 -3122)"/>
</svg>
