<svg xmlns="http://www.w3.org/2000/svg" width="40.031" height="43" viewBox="0 0 40.031 43">
  <metadata><?xpacket begin="﻿" id="W5M0MpCehiHzreSzNTczkc9d"?>
<x:xmpmeta xmlns:x="adobe:ns:meta/" x:xmptk="Adobe XMP Core 5.6-c138 79.159824, 2016/09/14-01:09:01        ">
   <rdf:RDF xmlns:rdf="http://www.w3.org/1999/02/22-rdf-syntax-ns#">
      <rdf:Description rdf:about=""/>
   </rdf:RDF>
</x:xmpmeta>
                                                                                                    
                                                                                                    
                                                                                                    
                                                                                                    
                                                                                                    
                                                                                                    
                                                                                                    
                                                                                                    
                                                                                                    
                                                                                                    
                                                                                                    
                                                                                                    
                                                                                                    
                                                                                                    
                                                                                                    
                                                                                                    
                                                                                                    
                                                                                                    
                                                                                                    
                                                                                                    
                           
<?xpacket end="w"?></metadata>
<defs>
    <style>
      .cls-1 {
        fill: #2b374d;
        fill-rule: evenodd;
      }
    </style>
  </defs>
  <path id="Forma_1" data-name="Forma 1" class="cls-1" d="M409.639,3363.31a18.424,18.424,0,0,0-25.882,0,17.94,17.94,0,0,0-5.36,12.67l-3.33,6.6a0.634,0.634,0,0,0,.242.83l3.087,1.83v9.74a0.633,0.633,0,0,0,.637.63h6.158v4.76a0.637,0.637,0,0,0,1.274,0v-5.39a0.632,0.632,0,0,0-.637-0.63H379.67v-9.46a0.641,0.641,0,0,0-.309-0.55l-2.891-1.71,3.133-6.21a0.663,0.663,0,0,0,.067-0.29,17.029,17.029,0,0,1,34.056,0,16.715,16.715,0,0,1-6.55,13.3,0.642,0.642,0,0,0-.244.5v10.44a0.637,0.637,0,0,0,1.274,0v-10.14A18.019,18.019,0,0,0,409.639,3363.31ZM396.7,3365.4a8.7,8.7,0,0,0-3.354,16.77v1.41h-0.722a0.632,0.632,0,0,0-.637.63v4.71a3.344,3.344,0,0,0,3.354,3.33h2.718a3.344,3.344,0,0,0,3.355-3.33v-4.71a0.633,0.633,0,0,0-.637-0.63h-0.722v-1.41a8.771,8.771,0,0,0,3.785-2.97,0.636,0.636,0,1,0-1.034-.74,7.529,7.529,0,0,1-3.6,2.68,0.624,0.624,0,0,0-.424.59v1.85h-4.162v-1.85a0.624,0.624,0,0,0-.424-0.59,7.474,7.474,0,1,1,9.784-5.16,0.623,0.623,0,0,0,.458.76,0.631,0.631,0,0,0,.776-0.45A8.711,8.711,0,0,0,396.7,3365.4Zm3.44,23.52a2.079,2.079,0,0,1-2.081,2.07h-2.718a2.078,2.078,0,0,1-2.08-2.07v-0.04h6.879v0.04Zm0-1.3h-6.879v-0.76h6.879v0.76Zm-0.722-2.78h0.722v0.76h-6.879v-0.76h6.157Zm1.359-12.03h-2.76v-3.41a0.642,0.642,0,0,0-1.117-.41l-4.756,5.38a0.639,0.639,0,0,0,.48,1.05h2.76v3.41a0.635,0.635,0,0,0,1.116.41l4.756-5.38A0.638,0.638,0,0,0,400.775,3372.81Zm-4.119,4.34v-2.36a0.632,0.632,0,0,0-.637-0.63h-1.994l2.716-3.08v2.36a0.632,0.632,0,0,0,.637.63h1.993Zm0.042-15.11a0.632,0.632,0,0,0-.637.63v1.35a0.637,0.637,0,0,0,1.274,0v-1.35A0.632,0.632,0,0,0,396.7,3362.04Zm-6.756,4.49-0.961-.95a0.634,0.634,0,0,0-.9,0,0.624,0.624,0,0,0,0,.89l0.96,0.95a0.642,0.642,0,0,0,.935-0.04A0.624,0.624,0,0,0,389.942,3366.53Zm-3.435,6.95h-1.359a0.635,0.635,0,1,0,0,1.27h1.359A0.635,0.635,0,1,0,386.507,3373.48Zm3.435,7.33a0.635,0.635,0,0,0-.9,0l-0.96.95a0.637,0.637,0,0,0-.034.86,0.648,0.648,0,0,0,.934.03l0.961-.95A0.624,0.624,0,0,0,389.942,3380.81Zm15.374,0.95-0.961-.95a0.635,0.635,0,0,0-.9,0,0.624,0.624,0,0,0,0,.89l0.961,0.95A0.633,0.633,0,0,0,405.316,3381.76Zm2.932-8.28h-1.359a0.635,0.635,0,1,0,0,1.27h1.359A0.635,0.635,0,1,0,408.248,3373.48Zm-2.932-7.9a0.635,0.635,0,0,0-.9,0l-0.961.95a0.628,0.628,0,0,0-.044.83,0.638,0.638,0,0,0,.945.06l0.961-.95A0.625,0.625,0,0,0,405.316,3365.58Z" transform="translate(-374.969 -3358)"/>
</svg>
