<svg xmlns="http://www.w3.org/2000/svg" width="40" height="40" viewBox="0 0 40 40">
  <metadata><?xpacket begin="﻿" id="W5M0MpCehiHzreSzNTczkc9d"?>
<x:xmpmeta xmlns:x="adobe:ns:meta/" x:xmptk="Adobe XMP Core 5.6-c138 79.159824, 2016/09/14-01:09:01        ">
   <rdf:RDF xmlns:rdf="http://www.w3.org/1999/02/22-rdf-syntax-ns#">
      <rdf:Description rdf:about=""/>
   </rdf:RDF>
</x:xmpmeta>
                                                                                                    
                                                                                                    
                                                                                                    
                                                                                                    
                                                                                                    
                                                                                                    
                                                                                                    
                                                                                                    
                                                                                                    
                                                                                                    
                                                                                                    
                                                                                                    
                                                                                                    
                                                                                                    
                                                                                                    
                                                                                                    
                                                                                                    
                                                                                                    
                                                                                                    
                                                                                                    
                           
<?xpacket end="w"?></metadata>
<defs>
    <style>
      .cls-1 {
        fill: #2b374d;
        fill-rule: evenodd;
      }
    </style>
  </defs>
  <path class="cls-1" d="M407.848,3150.06l1.156-1.15-0.912-.91-1.157,1.15-1.217-1.22a12.17,12.17,0,0,0,1.54-5.93c0-.18-0.019-0.36-0.028-0.54a6.722,6.722,0,0,0,5.189-6.56h-1.29a5.428,5.428,0,0,1-4.025,5.26,12.265,12.265,0,0,0-12.1-10.42c-0.184,0-.363.02-0.545,0.03a6.712,6.712,0,0,0-6.552-5.19v1.29a5.424,5.424,0,0,1,5.258,4.03,12.261,12.261,0,0,0-10.419,12.1c0,0.18.019,0.36,0.028,0.54a6.722,6.722,0,0,0-5.189,6.56h1.29a5.419,5.419,0,0,1,4.024-5.26,12.232,12.232,0,0,0,18.039,8.88l1.218,1.22L401,3155.09l0.912,0.91,1.157-1.15,6.162,6.16a3.353,3.353,0,0,0,2.391.99,3.388,3.388,0,0,0,3.383-3.38,3.35,3.35,0,0,0-.99-2.39ZM395,3131.03a10.976,10.976,0,0,1,10.837,9.37l-1.271.21a9.683,9.683,0,0,0-9.566-8.29c-0.033,0-.065.01-0.1,0.01l-0.213-1.28C394.793,3131.04,394.9,3131.03,395,3131.03Zm0,2.58a8.39,8.39,0,1,1-8.387,8.39A8.4,8.4,0,0,1,395,3133.61ZM384.032,3142a10.981,10.981,0,0,1,9.368-10.84l0.212,1.27a9.692,9.692,0,0,0-8.289,9.57c0,0.03,0,.06,0,0.1l-1.28.21C384.045,3142.21,384.032,3142.1,384.032,3142ZM395,3152.97a10.978,10.978,0,0,1-10.838-9.37l1.272-.21a9.671,9.671,0,0,0,19.243-1.39c0-.03,0-0.07,0-0.1l1.28-.21c0,0.1.016,0.2,0.016,0.31A10.981,10.981,0,0,1,395,3152.97Zm7.052-.96a12.283,12.283,0,0,0,2.958-2.96l1.013,1.01-2.959,2.96Zm9.566,8.7a2.094,2.094,0,0,1-1.479-.61l-6.162-6.16,2.958-2.96,6.162,6.16a2.07,2.07,0,0,1,.613,1.48A2.1,2.1,0,0,1,411.618,3160.71Zm-2.425-27.1a5.805,5.805,0,1,0-5.806-5.8A5.809,5.809,0,0,0,409.193,3133.61Zm1.936-1.73a4.477,4.477,0,0,1-3.871,0v-0.85a1.936,1.936,0,0,1,3.871,0v0.85Zm-3.226-5.36a1.291,1.291,0,1,1,1.29,1.29A1.286,1.286,0,0,1,407.9,3126.52Zm1.29-3.23a4.514,4.514,0,0,1,3.22,7.68,3.218,3.218,0,0,0-1.417-2.61,2.581,2.581,0,1,0-3.6,0,3.216,3.216,0,0,0-1.417,2.61A4.514,4.514,0,0,1,409.193,3123.29Zm-28.387,10.32a5.805,5.805,0,1,0-5.806-5.8A5.809,5.809,0,0,0,380.806,3133.61Zm1.936-1.73a4.477,4.477,0,0,1-3.871,0v-0.85a1.936,1.936,0,0,1,3.871,0v0.85Zm-3.226-5.36a1.291,1.291,0,1,1,1.29,1.29A1.286,1.286,0,0,1,379.516,3126.52Zm1.29-3.23a4.514,4.514,0,0,1,3.22,7.68,3.218,3.218,0,0,0-1.417-2.61,2.581,2.581,0,1,0-3.6,0,3.218,3.218,0,0,0-1.417,2.61A4.514,4.514,0,0,1,380.806,3123.29Zm0,27.1a5.805,5.805,0,1,0,5.807,5.8A5.808,5.808,0,0,0,380.806,3150.39Zm1.936,9.88a4.477,4.477,0,0,1-3.871,0v-0.85a1.936,1.936,0,1,1,3.871,0v0.85Zm-3.226-5.37a1.291,1.291,0,1,1,1.29,1.29A1.293,1.293,0,0,1,379.516,3154.9Zm4.51,4.45a3.233,3.233,0,0,0-1.417-2.61,2.553,2.553,0,0,0,.778-1.84,2.581,2.581,0,0,0-5.161,0,2.553,2.553,0,0,0,.778,1.84,3.233,3.233,0,0,0-1.417,2.61A4.517,4.517,0,1,1,384.026,3159.35Zm3.877-18.64v4.52H402.1v-7.1h-3.871v5.81h-1.291v-8.39h-3.871v8.39h-1.29v-3.23H387.9Zm11.613-1.29h1.29v4.52h-1.29v-4.52Zm-5.161-2.58h1.29v7.1h-1.29v-7.1Zm-3.871,7.1h-1.29V3142h1.29v1.94Z" transform="translate(-375 -3122)"/>
</svg>
