<svg xmlns="http://www.w3.org/2000/svg" width="41" height="41" viewBox="0 0 41 41">
  <metadata><?xpacket begin="﻿" id="W5M0MpCehiHzreSzNTczkc9d"?>
<x:xmpmeta xmlns:x="adobe:ns:meta/" x:xmptk="Adobe XMP Core 5.6-c138 79.159824, 2016/09/14-01:09:01        ">
   <rdf:RDF xmlns:rdf="http://www.w3.org/1999/02/22-rdf-syntax-ns#">
      <rdf:Description rdf:about=""/>
   </rdf:RDF>
</x:xmpmeta>
                                                                                                    
                                                                                                    
                                                                                                    
                                                                                                    
                                                                                                    
                                                                                                    
                                                                                                    
                                                                                                    
                                                                                                    
                                                                                                    
                                                                                                    
                                                                                                    
                                                                                                    
                                                                                                    
                                                                                                    
                                                                                                    
                                                                                                    
                                                                                                    
                                                                                                    
                                                                                                    
                           
<?xpacket end="w"?></metadata>
<defs>
    <style>
      .cls-1 {
        fill: #2b374d;
        fill-rule: evenodd;
      }
    </style>
  </defs>
  <path class="cls-1" d="M1228.43,3154.47l-0.68-.27a20.5,20.5,0,0,0,1.7-25.23,0.56,0.56,0,0,0-.1-0.15,20.8,20.8,0,0,0-3.57-3.94,0.659,0.659,0,0,0-.92.07,0.64,0.64,0,0,0,.08.91,19.611,19.611,0,0,1,2.93,3.12,28.426,28.426,0,0,1-4.85,1.35,22.844,22.844,0,0,0-1.87-4.19,14.8,14.8,0,0,0-3.36-4.11,19.335,19.335,0,0,1,5.45,2.54,0.645,0.645,0,1,0,.72-1.07,20.5,20.5,0,0,0-26.7,30.7l-0.67.26a3.676,3.676,0,0,0-2.33,3.57v2.32a0.649,0.649,0,0,0,.65.65h9.53a0.41,0.41,0,0,1,.18,0h2.64a0.65,0.65,0,0,0,0-1.3h-1.99v-2.25a3.175,3.175,0,0,1,1.94-3.09c0.01,0,.02-0.01.03-0.01l3.16-1.23,0.02,0.02,1.67,1.63a0.627,0.627,0,0,0,.45.18h0.01a0.613,0.613,0,0,0,.46-0.2l1.61-1.66,3.15,1.26a0.1,0.1,0,0,0,.03.01,3.161,3.161,0,0,1,1.94,3.09v2.25h-10.46a0.65,0.65,0,1,0,0,1.3h20.82a0.649,0.649,0,0,0,.65-0.65v-2.32A3.667,3.667,0,0,0,1228.43,3154.47Zm-1.96-.79-0.64-.26v-0.36a3.4,3.4,0,0,0,1.5-1.87,1.83,1.83,0,0,0,1.02-3.24v-1.15a4.373,4.373,0,0,0-3.81-4.33c0.02-.44.04-0.88,0.05-1.32h7.1A19.08,19.08,0,0,1,1226.47,3153.68Zm-2.34-1.46h-0.59a2.074,2.074,0,0,1-2.07-2.07v-1.71h0a6.769,6.769,0,0,0,3.48-1.35,2.937,2.937,0,0,0,1.26,1.2v1.86A2.083,2.083,0,0,1,1224.13,3152.22Zm0.4,1.27v0.36l-0.72.75-0.67-.66v-0.45a2.6,2.6,0,0,0,.4.03h0.59A2.6,2.6,0,0,0,1224.53,3153.49Zm-3.71-6.31h0a0.17,0.17,0,0,0-.07.01h-0.02a0.06,0.06,0,0,0-.04.01h-0.03a0.037,0.037,0,0,1-.03.01,0.035,0.035,0,0,0-.02.01v-0.42a3.069,3.069,0,0,1,3.06-3.07h0.31a3.077,3.077,0,0,1,3.07,3.07v0.41a0.076,0.076,0,0,1-.04-0.01H1227a1.98,1.98,0,0,1-1.2-1.42,0.654,0.654,0,0,0-1.16-.24C1223.47,3147.16,1220.85,3147.18,1220.82,3147.18Zm6.68,2.62v-0.87a0.54,0.54,0,0,1,.23.44A0.522,0.522,0,0,1,1227.5,3149.8Zm1.13-19.73a19.149,19.149,0,0,1,3.06,9.78h-7.11a32.388,32.388,0,0,0-1.18-8.28A29.355,29.355,0,0,0,1228.63,3130.07Zm-5.34,9.78h-6.63a5.306,5.306,0,0,0-3.51-1.73v-5.56a58.038,58.038,0,0,0,8.97-.76A30.974,30.974,0,0,1,1223.29,3139.85Zm-5.71,6.76a0.837,0.837,0,0,1-.61.8v-1.6A0.837,0.837,0,0,1,1217.58,3146.61Zm-4.43-25.28c2.57,0.28,5,2.19,6.88,5.46a21.663,21.663,0,0,1,1.7,3.77,56.978,56.978,0,0,1-8.58.7v-9.93h0Zm-0.41,18.07a4.012,4.012,0,0,1,4,4v0.79c-0.01,0-.01-0.01-0.02-0.01s-0.02-.01-0.03-0.02a0.038,0.038,0,0,0-.02-0.02c-0.01,0-.02-0.01-0.03-0.01s-0.02-.01-0.03-0.02a0.035,0.035,0,0,1-.02-0.01,0.076,0.076,0,0,0-.04-0.01,0.031,0.031,0,0,0-.02-0.01,0.076,0.076,0,0,0-.04-0.01,0.031,0.031,0,0,0-.02-0.01,2.637,2.637,0,0,1-1.62-1.9,0.671,0.671,0,0,0-.51-0.49,0.646,0.646,0,0,0-.65.26c-1.52,2.09-4.86,2.11-4.91,2.11h0c-0.02,0-.05.01-0.07,0.01h-0.02a0.06,0.06,0,0,0-.04.01h-0.03a2317974038.416,2317974038.416,0,0,1-.06.02c-0.01.01-.02,0.01-0.03,0.02s-0.03.01-.04,0.01-0.01.01-.02,0.01a0.053,0.053,0,0,1-.03.02,0.031,0.031,0,0,1-.02.01l-0.03.03a0.035,0.035,0,0,0-.02.01l-0.02.02v-0.81a4,4,0,0,1,4-4h0.39Zm-11.03.45a30.974,30.974,0,0,1,1.17-8.05,59.3,59.3,0,0,0,8.97.76v5.57a5.318,5.318,0,0,0-3.43,1.73,0.17,0.17,0,0,0-.07-0.01h-6.64Zm6.42,5.96v1.61a0.837,0.837,0,0,1-.63-0.81A0.817,0.817,0,0,1,1208.13,3145.81Zm3.72-24.48v9.93a58.545,58.545,0,0,1-8.58-.7,21.663,21.663,0,0,1,1.7-3.77C1206.85,3123.52,1209.28,3121.61,1211.85,3121.33Zm-4.65.71a14.757,14.757,0,0,0-3.35,4.1,22.168,22.168,0,0,0-1.86,4.19,28.168,28.168,0,0,1-4.85-1.35A19.281,19.281,0,0,1,1207.2,3122.04Zm-10.82,8.03a28.99,28.99,0,0,0,5.22,1.5,32.388,32.388,0,0,0-1.18,8.28h-7.11A19.119,19.119,0,0,1,1196.38,3130.07Zm4.17,23.42a2.728,2.728,0,0,0,.41.03h0.59a2.693,2.693,0,0,0,.4-0.03v0.36l-0.72.75-0.68-.66v-0.45Zm1-1.27h-0.59a2.076,2.076,0,0,1-2.08-2.07v-1.71a6.8,6.8,0,0,0,3.49-1.35,2.966,2.966,0,0,0,1.25,1.2v1.86A2.074,2.074,0,0,1,1201.55,3152.22Zm1.66-6.44a0.631,0.631,0,0,0-.5-0.49,0.644,0.644,0,0,0-.65.25c-1.18,1.62-3.79,1.64-3.82,1.64h-0.01a0.127,0.127,0,0,0-.06.01h-0.02a0.09,0.09,0,0,0-.05.01h-0.02a0.076,0.076,0,0,1-.04.01c-0.01,0-.01.01-0.02,0.01v-0.42a3.077,3.077,0,0,1,3.07-3.07h0.31a3.077,3.077,0,0,1,3.07,3.07v0.41h0a0.048,0.048,0,0,1-.04-0.01h-0.02A2.006,2.006,0,0,1,1203.21,3145.78Zm-9.9-4.63h7.1c0.01,0.44.03,0.89,0.05,1.33a4.357,4.357,0,0,0-3.73,4.32v1.14a1.825,1.825,0,0,0,1.02,3.25,3.415,3.415,0,0,0,1.51,1.87v0.36l-0.71.28A19.1,19.1,0,0,1,1193.31,3141.15Zm4.28,7.77v0.9a0.552,0.552,0,0,1-.25-0.45A0.525,0.525,0,0,1,1197.59,3148.92Zm6.38,8.53v2.25h-8.41v-1.67a2.426,2.426,0,0,1,1.46-2.35,0.037,0.037,0,0,0,.03-0.01l2.44-.95,1.3,1.26a0.627,0.627,0,0,0,.45.18h0.01a0.642,0.642,0,0,0,.46-0.19l1.22-1.28,1.52,0.61A4.806,4.806,0,0,0,1203.97,3157.45Zm6.25-5.66-3.44,1.35a4.228,4.228,0,0,0-1.58,1.07l-1.96-.79v-0.36a3.415,3.415,0,0,0,1.51-1.87,1.824,1.824,0,0,0,1.01-3.24v-1.15a4.367,4.367,0,0,0-4-4.35c-0.02-.43-0.04-0.87-0.05-1.3h5.85a5.262,5.262,0,0,0-.5,2.25v1.51a2.123,2.123,0,0,0,1.24,3.83,4.024,4.024,0,0,0,1.92,2.39v0.66h0Zm-5.31-1.99v-0.87a0.54,0.54,0,0,1,.23.44A0.509,0.509,0,0,1,1204.91,3149.8Zm8.68,2.45h0v0.04l-1.06,1.1-1.02-.99v-0.81a5.035,5.035,0,0,0,.67.05h0.74a4.913,4.913,0,0,0,.67-0.05v0.66Zm-0.67-1.9h-0.74a2.757,2.757,0,0,1-2.75-2.76v-2.28a8.18,8.18,0,0,0,4.56-1.8,3.562,3.562,0,0,0,1.69,1.65v2.43A2.766,2.766,0,0,1,1212.92,3150.35Zm6.89,3.86a4.08,4.08,0,0,0-1.58-1.07l-3.35-1.34v-0.67a4.106,4.106,0,0,0,1.93-2.39,2.127,2.127,0,0,0,1.22-3.82v-1.52a5.262,5.262,0,0,0-.5-2.25h5.76c-0.01.43-.03,0.87-0.05,1.31a4.364,4.364,0,0,0-3.93,4.34v1.14a1.854,1.854,0,0,0-.68,1.43,1.827,1.827,0,0,0,1.71,1.82,3.4,3.4,0,0,0,1.5,1.87v0.36Zm0.36-5.29v0.9a0.552,0.552,0,0,1-.25-0.45A0.525,0.525,0,0,1,1220.17,3148.92Zm9.29,10.78h-8.42v-2.25a4.934,4.934,0,0,0-.47-2.14l1.51-.59,1.3,1.26a0.627,0.627,0,0,0,.45.18h0.01a0.636,0.636,0,0,0,.45-0.19l1.23-1.28,2.44,0.98a0.028,0.028,0,0,0,.03.01,2.414,2.414,0,0,1,1.47,2.35v1.67h0Z" transform="translate(-1192 -3120)"/>
</svg>
