<svg xmlns="http://www.w3.org/2000/svg" width="42" height="42" viewBox="0 0 42 42">
  <metadata><?xpacket begin="﻿" id="W5M0MpCehiHzreSzNTczkc9d"?>
<x:xmpmeta xmlns:x="adobe:ns:meta/" x:xmptk="Adobe XMP Core 5.6-c138 79.159824, 2016/09/14-01:09:01        ">
   <rdf:RDF xmlns:rdf="http://www.w3.org/1999/02/22-rdf-syntax-ns#">
      <rdf:Description rdf:about=""/>
   </rdf:RDF>
</x:xmpmeta>
                                                                                                    
                                                                                                    
                                                                                                    
                                                                                                    
                                                                                                    
                                                                                                    
                                                                                                    
                                                                                                    
                                                                                                    
                                                                                                    
                                                                                                    
                                                                                                    
                                                                                                    
                                                                                                    
                                                                                                    
                                                                                                    
                                                                                                    
                                                                                                    
                                                                                                    
                                                                                                    
                           
<?xpacket end="w"?></metadata>
<defs>
    <style>
      .cls-1 {
        fill: #2b374d;
        fill-rule: evenodd;
      }
    </style>
  </defs>
  <path id="Forma_1" data-name="Forma 1" class="cls-1" d="M1222.07,3377.78h-26.48a3.55,3.55,0,0,0-3.59,3.5v14.19a3.55,3.55,0,0,0,3.59,3.5h1.65l-0.56,2.16a0.674,0.674,0,0,0,.24.71,0.69,0.69,0,0,0,.45.16,0.8,0.8,0,0,0,.3-0.06l6.54-2.97h17.86a3.55,3.55,0,0,0,3.59-3.5v-14.19A3.55,3.55,0,0,0,1222.07,3377.78Zm2.16,17.69a2.143,2.143,0,0,1-2.16,2.12h-18.02a0.8,0.8,0,0,0-.3.06l-5.32,2.41,0.42-1.61a0.716,0.716,0,0,0-.13-0.6,0.7,0.7,0,0,0-.56-0.26h-2.57a2.151,2.151,0,0,1-2.17-2.12v-14.19a2.151,2.151,0,0,1,2.17-2.12h26.48a2.143,2.143,0,0,1,2.16,2.12v14.19Zm-3.93-13.62h-22.94a0.7,0.7,0,1,0,0,1.39h22.94A0.7,0.7,0,1,0,1220.3,3381.85Zm0,3.82h-22.94a0.7,0.7,0,0,0-.71.7,0.7,0.7,0,0,0,.71.69h22.94a0.7,0.7,0,0,0,.71-0.69A0.711,0.711,0,0,0,1220.3,3385.67Zm0,3.83h-22.94a0.7,0.7,0,1,0,0,1.39h22.94A0.7,0.7,0,1,0,1220.3,3389.5Zm0,3.83h-22.94a0.7,0.7,0,0,0-.71.69,0.7,0.7,0,0,0,.71.7h22.94a0.711,0.711,0,0,0,.71-0.7A0.7,0.7,0,0,0,1220.3,3393.33Zm10.11-33.33h-11.95a3.551,3.551,0,0,0-3.59,3.51v8.32a3.55,3.55,0,0,0,3.59,3.5h3.05l5.72,2.59a0.717,0.717,0,0,0,.29.06,0.7,0.7,0,0,0,.72-0.68l0.03-1.97h2.14a3.55,3.55,0,0,0,3.59-3.5v-8.32A3.551,3.551,0,0,0,1230.41,3360Zm2.17,11.83a2.151,2.151,0,0,1-2.17,2.12h-2.85a0.707,0.707,0,0,0-.71.68l-0.02,1.58-4.86-2.2a0.765,0.765,0,0,0-.3-0.06h-3.21a2.151,2.151,0,0,1-2.17-2.12v-8.32a2.151,2.151,0,0,1,2.17-2.12h11.95a2.151,2.151,0,0,1,2.17,2.12v8.32Zm-8.14-8.81a3.05,3.05,0,0,0-3.09,3.01,0.71,0.71,0,0,0,1.42,0,1.665,1.665,0,0,1,3.33,0,1.614,1.614,0,0,1-.78,1.38,3.246,3.246,0,0,0-1.7,2.94,0.705,0.705,0,0,0,.71.67h0.03a0.7,0.7,0,0,0,.68-0.72,1.882,1.882,0,0,1,.99-1.69c0.01-.01.02-0.01,0.03-0.02a2.962,2.962,0,0,0,1.46-2.56A3.048,3.048,0,0,0,1224.44,3363.02Zm-0.1,8.69a0.744,0.744,0,0,0-.51.2,0.7,0.7,0,0,0-.2.49,0.663,0.663,0,0,0,.2.49,0.754,0.754,0,0,0,.51.21,0.73,0.73,0,0,0,.5-0.21,0.672,0.672,0,0,0,.21-0.49,0.707,0.707,0,0,0-.21-0.49A0.72,0.72,0,0,0,1224.34,3371.71Z" transform="translate(-1192 -3360)"/>
</svg>
