<svg xmlns="http://www.w3.org/2000/svg" width="239" height="227" viewBox="0 0 239 227">
  <metadata><?xpacket begin="﻿" id="W5M0MpCehiHzreSzNTczkc9d"?>
<x:xmpmeta xmlns:x="adobe:ns:meta/" x:xmptk="Adobe XMP Core 5.6-c138 79.159824, 2016/09/14-01:09:01        ">
   <rdf:RDF xmlns:rdf="http://www.w3.org/1999/02/22-rdf-syntax-ns#">
      <rdf:Description rdf:about=""/>
   </rdf:RDF>
</x:xmpmeta>
                                                                                                    
                                                                                                    
                                                                                                    
                                                                                                    
                                                                                                    
                                                                                                    
                                                                                                    
                                                                                                    
                                                                                                    
                                                                                                    
                                                                                                    
                                                                                                    
                                                                                                    
                                                                                                    
                                                                                                    
                                                                                                    
                                                                                                    
                                                                                                    
                                                                                                    
                                                                                                    
                           
<?xpacket end="w"?></metadata>
<defs>
    <style>
      .cls-1 {
        fill: #2b374d;
        stroke: #f0f0f0;
        stroke-width: 2px;
        fill-rule: evenodd;
      }
    </style>
  </defs>
  <path class="cls-1" d="M581.419,1173.77v79.84H612v-79.84H581.419Zm22.936,72.58H589.064v-65.32h15.291v65.32Zm-61.162-35.86a89.182,89.182,0,0,0-7.645-5.83v-1.85H532.67a95.39,95.39,0,0,0-50.638-14.52H478.21v90.73h95.564v-3.63a82.961,82.961,0,0,0-2.959-21.78h2.959v-65.32H543.193v22.2Zm-57.338,61.27v-76.13a87.624,87.624,0,0,1,31.073,7.18h-11.96v50.8h30.58v-39.67a80.592,80.592,0,0,1,7.645,6.74v32.93H562.9a76.251,76.251,0,0,1,3.142,18.15h-80.19Zm42.048-61.7v36.29h-15.29v-36.29H527.9Zm22.936-14.51h15.29v50.8h-15.29v-50.8Zm-146.05,97.23,32.489-30.85,5.406,5.14L410.2,1297.91Zm16.082-28.28c0-6-5.145-10.89-11.468-10.89s-11.468,4.89-11.468,10.89,5.146,10.89,11.468,10.89S420.871,1270.5,420.871,1264.5Zm-15.29,0a3.828,3.828,0,1,1,3.822,3.63A3.733,3.733,0,0,1,405.581,1264.5Zm34.4,18.14c-6.323,0-11.468,4.89-11.468,10.89s5.145,10.89,11.468,10.89,11.467-4.89,11.467-10.89S446.306,1282.64,439.984,1282.64Zm0,14.52a3.635,3.635,0,1,1,3.822-3.63A3.728,3.728,0,0,1,439.984,1297.16Zm102.663,41.53a83.357,83.357,0,0,0,15.837-48.79v-3.63h-87.92v-83.46h-3.822a97.046,97.046,0,0,0-11.468.77V1152H375v50.81h48.111l7.465,7.08C397.114,1223.54,375,1254.98,375,1289.9c0,48.03,41.158,87.1,91.742,87.1a94.2,94.2,0,0,0,60.011-21.36l11.827,11.22a12.378,12.378,0,0,0,16.872,0,10.926,10.926,0,0,0,0-16.01ZM426.276,1195.55H382.645v-36.29h64.984v56.56Zm40.466,174.19c-46.372,0-84.1-35.81-84.1-79.84,0-32.99,21.544-62.59,53.81-74.42l18.819,17.86v-22.48c2.557-.33,5.115-0.6,7.645-0.71v83.38h87.835a76.278,76.278,0,0,1-13.6,39.94l-6.1-5.79a20.589,20.589,0,0,0,.669-5.12c0-12-10.287-21.77-22.936-21.77s-22.935,9.77-22.935,21.77,10.286,21.78,22.935,21.78a23.915,23.915,0,0,0,5.394-.64l7.148,6.79A86.29,86.29,0,0,1,466.742,1369.74Zm57.338-47.18c0,8.01-6.857,14.52-15.29,14.52s-15.29-6.51-15.29-14.52,6.858-14.51,15.29-14.51S524.08,1314.56,524.08,1322.56Zm25.967,39.17a4.448,4.448,0,0,1-6.062,0l-22.3-21.17a22.5,22.5,0,0,0,6.062-5.75l22.3,21.17A3.924,3.924,0,0,1,550.047,1361.73ZM390.29,1166.52h49.694v7.25H390.29v-7.25Zm0,14.51h49.694v7.26H390.29v-7.26Zm114.678,137.91h7.645v7.25h-7.645v-7.25Zm-34.4,0h7.646v7.25h-7.646v-7.25Zm-15.29,0h7.645v7.25h-7.645v-7.25Zm-15.29,0h7.645v7.25h-7.645v-7.25Z" transform="translate(-374 -1151)"/>
</svg>
