<svg xmlns="http://www.w3.org/2000/svg" width="22.03" height="12" viewBox="0 0 22.03 12">
  <metadata><?xpacket begin="﻿" id="W5M0MpCehiHzreSzNTczkc9d"?>
<x:xmpmeta xmlns:x="adobe:ns:meta/" x:xmptk="Adobe XMP Core 5.6-c138 79.159824, 2016/09/14-01:09:01        ">
   <rdf:RDF xmlns:rdf="http://www.w3.org/1999/02/22-rdf-syntax-ns#">
      <rdf:Description rdf:about=""/>
   </rdf:RDF>
</x:xmpmeta>
                                                                                                    
                                                                                                    
                                                                                                    
                                                                                                    
                                                                                                    
                                                                                                    
                                                                                                    
                                                                                                    
                                                                                                    
                                                                                                    
                                                                                                    
                                                                                                    
                                                                                                    
                                                                                                    
                                                                                                    
                                                                                                    
                                                                                                    
                                                                                                    
                                                                                                    
                                                                                                    
                           
<?xpacket end="w"?></metadata>
<defs>
    <style>
      .cls-1 {
        fill: #fff;
        fill-rule: evenodd;
        opacity: 0.3;
      }
    </style>
  </defs>
  <path class="cls-1" d="M1816.93,1992.63c0.73,0.69,1.5,1.33,2.16,2.09a5.813,5.813,0,0,1,.77,1.07,0.762,0.762,0,0,1-.49,1.2h-3.21a2.572,2.572,0,0,1-2.04-.8c-0.44-.44-0.85-0.9-1.28-1.35a3.067,3.067,0,0,0-.58-0.5,0.686,0.686,0,0,0-1.07.25,3.164,3.164,0,0,0-.33,1.44,0.85,0.85,0,0,1-1.03.96,8.573,8.573,0,0,1-4.59-.95,10.2,10.2,0,0,1-3.09-2.79,37.4,37.4,0,0,1-4.06-6.97c-0.26-.55-0.07-0.85.56-0.86,1.05-.02,2.09-0.02,3.14,0a0.912,0.912,0,0,1,.87.63,18.943,18.943,0,0,0,2.13,3.8,3.433,3.433,0,0,0,.81.85,0.5,0.5,0,0,0,.83-0.24,2.392,2.392,0,0,0,.18-0.8,11.841,11.841,0,0,0-.05-2.79,1.18,1.18,0,0,0-1.03-1.06c-0.31-.06-0.26-0.17-0.11-0.34a1.156,1.156,0,0,1,.98-0.47h3.63a0.843,0.843,0,0,1,.77.91l0.01,3.88a1.11,1.11,0,0,0,.51.99,0.725,0.725,0,0,0,.72-0.34,11.986,11.986,0,0,0,2.04-3.02c0.25-.48.46-0.98,0.66-1.47a0.777,0.777,0,0,1,.82-0.54h3.49a1.564,1.564,0,0,1,.31.02c0.59,0.1.75,0.34,0.57,0.89a8.321,8.321,0,0,1-1.39,2.32c-0.58.77-1.2,1.52-1.78,2.3a1.03,1.03,0,0,0,.17,1.69h0Z" transform="translate(-1798 -1985)"/>
</svg>
