<svg xmlns="http://www.w3.org/2000/svg" width="308.47" height="237.22" viewBox="0 0 308.47 237.22">
  <metadata><?xpacket begin="﻿" id="W5M0MpCehiHzreSzNTczkc9d"?>
<x:xmpmeta xmlns:x="adobe:ns:meta/" x:xmptk="Adobe XMP Core 5.6-c138 79.159824, 2016/09/14-01:09:01        ">
   <rdf:RDF xmlns:rdf="http://www.w3.org/1999/02/22-rdf-syntax-ns#">
      <rdf:Description rdf:about=""/>
   </rdf:RDF>
</x:xmpmeta>
                                                                                                    
                                                                                                    
                                                                                                    
                                                                                                    
                                                                                                    
                                                                                                    
                                                                                                    
                                                                                                    
                                                                                                    
                                                                                                    
                                                                                                    
                                                                                                    
                                                                                                    
                                                                                                    
                                                                                                    
                                                                                                    
                                                                                                    
                                                                                                    
                                                                                                    
                                                                                                    
                           
<?xpacket end="w"?></metadata>
<defs>
    <style>
      .cls-1 {
        fill: #fff;
        fill-rule: evenodd;
      }
    </style>
  </defs>
  <path id="Shape_1_copy" data-name="Shape 1 copy" class="cls-1" d="M1589.64,2857.55a27.884,27.884,0,0,0-9.97,17.77,27.534,27.534,0,0,0-24.26,5.04,27.888,27.888,0,0,0-9.97,17.78,27.548,27.548,0,0,0-24.27,5.04,27.97,27.97,0,0,0-8.87,12.97l-68.16-68.17a27.745,27.745,0,0,0-41.14,2.09c-8.88,10.86-7.68,27.53,2.73,37.95l68.34,68.33,0.01,31.46a47.665,47.665,0,0,0,22.72,40.75l62.7,38.84a63.824,63.824,0,0,0,79.02-9.14l48.24-48.24a64.134,64.134,0,0,0-.04-90.6l-59.13-59.14C1617.17,2849.86,1600.5,2848.66,1589.64,2857.55Zm86.38,72.56a48.985,48.985,0,0,1,.03,69.2l-48.24,48.24a48.725,48.725,0,0,1-60.35,6.98l-62.7-38.83a32.627,32.627,0,0,1-15.55-27.89v-16.32l18.48,18.48a7.563,7.563,0,1,0,10.69-10.7l-101.95-101.95c-4.98-4.99-5.74-12.74-1.71-17.67a12.619,12.619,0,0,1,18.72-.97l94.21,94.2a7.563,7.563,0,1,0,10.7-10.69l-8.57-8.57a12.622,12.622,0,0,1,.98-18.73c4.92-4.02,12.68-3.27,17.66,1.72l13.46,13.45a7.563,7.563,0,1,0,10.7-10.69l-8.56-8.57a12.6,12.6,0,0,1,.97-18.72c4.92-4.03,12.68-3.27,17.67,1.71l13.46,13.46a7.563,7.563,0,1,0,10.69-10.7l-8.56-8.56a12.621,12.621,0,0,1,.98-18.73c4.92-4.02,12.68-3.27,17.66,1.71l59.14,59.14h-0.01Z" transform="translate(-1397.03 -2839.84)"/>
</svg>
