<svg xmlns="http://www.w3.org/2000/svg" width="256.03" height="256" viewBox="0 0 256.03 256">
  <metadata><?xpacket begin="﻿" id="W5M0MpCehiHzreSzNTczkc9d"?>
<x:xmpmeta xmlns:x="adobe:ns:meta/" x:xmptk="Adobe XMP Core 5.6-c138 79.159824, 2016/09/14-01:09:01        ">
   <rdf:RDF xmlns:rdf="http://www.w3.org/1999/02/22-rdf-syntax-ns#">
      <rdf:Description rdf:about=""/>
   </rdf:RDF>
</x:xmpmeta>
                                                                                                    
                                                                                                    
                                                                                                    
                                                                                                    
                                                                                                    
                                                                                                    
                                                                                                    
                                                                                                    
                                                                                                    
                                                                                                    
                                                                                                    
                                                                                                    
                                                                                                    
                                                                                                    
                                                                                                    
                                                                                                    
                                                                                                    
                                                                                                    
                                                                                                    
                                                                                                    
                           
<?xpacket end="w"?></metadata>
<defs>
    <style>
      .cls-1 {
        fill: #e6e6e6;
        fill-rule: evenodd;
      }
    </style>
  </defs>
  <path id="Forma_1_copy" data-name="Forma 1 copy" class="cls-1" d="M1643.49,744.522l-50.95-50.946,36.35-21a8.559,8.559,0,0,0-1.11-15.365l-162.09-64.651a8.56,8.56,0,0,0-11.12,11.122l64.64,162.092a8.565,8.565,0,0,0,15.37,1.11l21-36.345,50.94,50.947a8.561,8.561,0,0,0,12.11,0l24.86-24.862A8.549,8.549,0,0,0,1643.49,744.522Zm-30.91,18.811-52.78-52.782a8.572,8.572,0,0,0-6.06-2.508,8.445,8.445,0,0,0-1.11.073,8.556,8.556,0,0,0-6.3,4.207l-17.75,30.722-50.73-127.194,127.2,50.732-30.73,17.746a8.555,8.555,0,0,0-1.77,13.468l52.78,52.781Zm-185-209.86a8.563,8.563,0,0,0-12.11,12.109L1434.5,584.6a8.562,8.562,0,0,0,12.11-12.108Zm6.45,59.184a8.565,8.565,0,0,0-8.56-8.56h-26.91a8.561,8.561,0,0,0,0,17.121h26.91A8.567,8.567,0,0,0,1434.03,612.657Zm-3.47,26.423-19.03,19.025a8.561,8.561,0,0,0,12.11,12.105l19.02-19.023A8.558,8.558,0,1,0,1430.56,639.08Zm44.1-67.053a8.56,8.56,0,0,0,8.56-8.561v-26.9a8.56,8.56,0,1,0-17.12,0v26.9A8.56,8.56,0,0,0,1474.66,572.027Zm32.47,11.143a8.529,8.529,0,0,0,6.06-2.507l19.02-19.022a8.562,8.562,0,0,0-12.11-12.107l-19.02,19.022A8.561,8.561,0,0,0,1507.13,583.17Z" transform="translate(-1390 -528)"/>
</svg>
