<?xml version="1.0" encoding="utf-8"?>
<!-- Generator: Adobe Illustrator 21.1.0, SVG Export Plug-In . SVG Version: 6.00 Build 0)  -->
<svg version="1.1" id="Слой_1" xmlns="http://www.w3.org/2000/svg" xmlns:xlink="http://www.w3.org/1999/xlink" x="0px" y="0px"
	 viewBox="0 0 326 326" style="enable-background:new 0 0 326 326;" xml:space="preserve">
<style type="text/css">
	.st0{fill:#E6E6E6;}
</style>
<path id="Forma_1" class="st0" d="M287.3,225.8c51.6-51.6,51.6-135.5,0-187.1s-135.5-51.6-187.1,0C56.5,82.4,49.9,147.5,80.3,198.3
	c0,0,2.2,3.7-0.8,6.6l-67.5,67.5c-13.4,13.4-16.6,32.2-4.7,44.1l2.1,2c11.9,11.9,30.7,8.7,44.1-4.7l67.3-67.4
	c1.8-1.8,4.6-2.2,6.8-0.9C178.5,276.1,243.6,269.5,287.3,225.8z M124.7,201.3c-38.2-38.2-38.2-100.1,0-138.2s100.1-38.2,138.2,0
	s38.2,100.1,0,138.2c0,0,0,0,0,0C224.7,239.4,162.9,239.4,124.7,201.3z M133.1,124.4c-7.5,0-13.7-6.1-13.6-13.7
	c0-1.8,0.4-3.6,1.1-5.3c18.5-43.7,68.9-64.1,112.6-45.7c6.9,2.9,10.2,10.9,7.3,17.9c0,0,0,0,0,0c-2.9,6.9-10.9,10.2-17.9,7.3
	c-29.8-12.6-64.2,1.4-76.9,31.1C143.6,121.1,138.6,124.4,133.1,124.4z"/>
</svg>
