<?xml version="1.0" encoding="utf-8"?>
<!-- Generator: Adobe Illustrator 21.1.0, SVG Export Plug-In . SVG Version: 6.00 Build 0)  -->
<svg version="1.1" id="Слой_1" xmlns="http://www.w3.org/2000/svg" xmlns:xlink="http://www.w3.org/1999/xlink" x="0px" y="0px"
	 viewBox="0 0 933 237" style="enable-background:new 0 0 933 237;" xml:space="preserve">
<style type="text/css">
	.st0{fill:#F0F0F0;}
</style>
<g id="Монтажная_область_1">
	<path id="Forma_1_copy_2" class="st0" d="M691.8,57.8L668.6,1.9c-0.7-1.6-2.5-2.3-4.1-1.7l-77.2,31.9c-1.6,0.7-2.3,2.5-1.7,4
		c0,0,0,0,0,0l23.2,55.9c0.7,1.6,2.5,2.3,4.1,1.7c0,0,0,0,0,0l77.2-31.9C691.7,61.2,692.4,59.4,691.8,57.8
		C691.8,57.8,691.8,57.8,691.8,57.8z M643.4,58.3l-47.2-23.1l64.3-26.6L643.4,58.3z M643.8,65.4c0.4,0.2,0.9,0.3,1.4,0.3
		c0.4,0,0.8-0.1,1.2-0.2c0.8-0.3,1.5-1,1.8-1.9l6.7-19.4l26.7,14.5l-64.8,26.8l8.7-29.1L643.8,65.4z M682.8,52.4l-26-14.1l9.1-26.6
		L682.8,52.4z M594.4,41.3l25.3,12.4l-8.4,28.3L594.4,41.3z M560.1,48.5h18c1.7,0,3.1-1.4,3.1-3.1c0-1.7-1.4-3.1-3.1-3.1
		c0,0,0,0,0,0h-18c-1.7,0-3.1,1.4-3.1,3.1C557,47.1,558.4,48.5,560.1,48.5L560.1,48.5z M591,77.5h-30.9c-1.7,0-3.1,1.4-3.1,3.1
		c0,1.7,1.4,3.1,3.1,3.1c0,0,0,0,0,0H591c1.7,0,3.1-1.4,3.1-3.1C594,78.9,592.7,77.5,591,77.5L591,77.5z M560.1,66.1h24.4
		c1.7,0,3.1-1.4,3.1-3.1c0-1.7-1.4-3.1-3.1-3.1c0,0,0,0,0,0h-24.4c-1.7,0-3.1,1.4-3.1,3.1C557,64.7,558.4,66.1,560.1,66.1
		L560.1,66.1z"/>
	<path id="Forma_1_copy_5" class="st0" d="M318.8,54.7l-15.5-37.4c-0.4-1.1-1.6-1.6-2.7-1.1l-51.5,21.4c-1.1,0.4-1.6,1.7-1.1,2.7
		l15.5,37.4c0.3,0.8,1.1,1.3,1.9,1.3c0.3,0,0.5-0.1,0.8-0.2l51.5-21.4C318.8,57,319.3,55.8,318.8,54.7
		C318.8,54.7,318.8,54.7,318.8,54.7z M286.6,55l-31.5-15.4l42.8-17.8L286.6,55z M286.9,59.8c0.3,0.1,0.6,0.2,0.9,0.2
		c0.3,0,0.5-0.1,0.8-0.2c0.5-0.2,1-0.7,1.2-1.2l4.4-13l17.8,9.7l-43.2,17.9l5.8-19.5L286.9,59.8z M312.9,51.1l-17.3-9.4l6.1-17.8
		L312.9,51.1z M253.9,43.7l16.9,8.3l-5.6,19L253.9,43.7z M231.1,48.5h12c1.1,0,2.1-0.9,2.1-2.1c0-1.1-0.9-2.1-2.1-2.1h-12
		c-1.1,0-2.1,1-2,2.1C229,47.6,229.9,48.5,231.1,48.5L231.1,48.5z M251.6,67.9h-20.6c-1.1,0-2.1,0.9-2.1,2.1c0,1.1,0.9,2.1,2.1,2.1
		h20.6c1.4,0,2.6-0.6,2.6-2.1C254.2,68.6,253.1,67.4,251.6,67.9L251.6,67.9z M231.1,60.3h16.3c1.1,0,2.1-0.9,2.1-2.1
		c0-1.1-0.9-2.1-2.1-2.1h-16.3c-1.1,0-2.1,1-2,2.1C229,59.4,229.9,60.3,231.1,60.3L231.1,60.3z"/>
	<path id="Forma_1_copy_4" class="st0" d="M556.7,185.4l-32.8-79.7c-0.9-2.2-3.5-3.3-5.7-2.4c0,0,0,0,0,0l-109.3,45.5
		c-1.1,0.4-1.9,1.3-2.4,2.4c-0.4,1.1-0.4,2.3,0,3.4l32.8,79.6c0.9,2.2,3.5,3.3,5.7,2.4c0,0,0,0,0.1,0l109.3-45.5
		C556.5,190.2,557.6,187.6,556.7,185.4z M488.2,186.1l-66.8-32.9l90.9-37.9L488.2,186.1z M488.8,196.2c0.6,0.3,1.3,0.4,1.9,0.4
		c0.6,0,1.1-0.1,1.7-0.3c1.2-0.5,2.1-1.5,2.5-2.6l9.4-27.6l37.8,20.6l-91.6,38.2l12.3-41.5L488.8,196.2z M544,177.6l-36.8-20.1
		l12.9-37.9L544,177.6z M418.9,161.8l35.8,17.6l-11.9,40.4L418.9,161.8z M370.4,172.1h25.5c2.4,0,4.4-2,4.4-4.4s-2-4.4-4.4-4.4
		h-25.5c-2.4,0-4.4,2-4.4,4.4S367.9,172.1,370.4,172.1L370.4,172.1z M414,213.4h-43.7c-2.4,0-4.4,2-4.4,4.4s2,4.4,4.4,4.4H414
		c2.4,0,4.4-2,4.4-4.4C418.4,215.4,416.5,213.5,414,213.4L414,213.4z M370.4,197.2H405c2.4,0,4.4-2,4.4-4.4s-2-4.4-4.4-4.4h-34.6
		c-2.4,0-4.4,2-4.4,4.4C366,195.2,367.9,197.2,370.4,197.2L370.4,197.2z"/>
	<path id="Forma_1" class="st0" d="M932.5,148.7l-45.4-110c-1.3-3.1-4.8-4.6-7.9-3.3c0,0,0,0,0,0l-151,62.8
		c-1.5,0.6-2.7,1.8-3.3,3.3c-0.6,1.5-0.6,3.2,0,4.7l45.4,110c0.9,2.3,3.2,3.8,5.6,3.8c0.8,0,1.6-0.2,2.3-0.5l151-62.8
		C932.3,155.4,933.8,151.9,932.5,148.7z M837.9,149.7l-92.3-45.4L871.2,52L837.9,149.7z M838.7,163.6c1.6,0.8,3.4,0.8,5,0.2
		c1.6-0.7,2.9-2,3.4-3.7l13-38.1l52.3,28.5l-126.7,52.7l16.9-57.3L838.7,163.6z M915,138l-50.8-27.7L882,58L915,138z M742.2,116.2
		l49.5,24.3l-16.5,55.7L742.2,116.2z M675.1,130.4h35.2c3.4-0.1,6-3,5.8-6.3c-0.1-3.2-2.7-5.7-5.8-5.8h-35.2c-3.4,0.1-6,3-5.9,6.3
		C669.3,127.7,671.9,130.2,675.1,130.4L675.1,130.4z M735.4,187.5h-60.3c-3.4,0.1-6,3-5.8,6.3c0.1,3.2,2.7,5.7,5.8,5.8h60.3
		c2.8-1.8,3.1-6.5,1.3-9.4C736.2,189.6,735.6,188.9,735.4,187.5L735.4,187.5z M675.1,165h47.8c3.4-0.1,6-3,5.8-6.3
		c-0.1-3.2-2.7-5.7-5.8-5.8h-47.8c-3.4,0.1-6,3-5.9,6.3C669.3,162.3,671.9,164.9,675.1,165L675.1,165z"/>
	<g id="form">
		<g id="bg">
			<path id="Forma_1_copy_6" class="st0" d="M89.8,145.7l-15.5-37.4c-0.4-1.1-1.6-1.6-2.7-1.1l-51.5,21.4c-1.1,0.4-1.6,1.7-1.1,2.7
				l15.5,37.4c0.3,0.8,1.1,1.3,1.9,1.3c0.3,0,0.5-0.1,0.8-0.2l51.5-21.4C89.8,148,90.3,146.8,89.8,145.7
				C89.8,145.7,89.8,145.7,89.8,145.7z M57.6,146l-31.5-15.4l42.8-17.8L57.6,146z M57.9,150.8c0.3,0.1,0.6,0.2,0.9,0.2
				c0.3,0,0.5-0.1,0.8-0.2c0.5-0.2,1-0.7,1.2-1.2l4.4-13l17.8,9.7l-43.2,17.9l5.8-19.5L57.9,150.8z M83.9,142.1l-17.3-9.4l6.1-17.8
				L83.9,142.1z M24.9,134.7l16.9,8.3l-5.6,19L24.9,134.7z M2.1,139.5h12c1.1,0,2.1-0.9,2.1-2.1c0-1.1-0.9-2.1-2.1-2.1h-12
				c-1.1,0-2.1,1-2,2.1C0,138.6,0.9,139.5,2.1,139.5L2.1,139.5z M22.6,158.9H2.1c-1.1,0-2.1,0.9-2.1,2.1c0,1.1,0.9,2.1,2.1,2.1h20.6
				c1.4,0,2.6-0.6,2.6-2.1C25.2,159.6,24.1,158.4,22.6,158.9L22.6,158.9z M2.1,151.3h16.3c1.1,0,2.1-0.9,2.1-2.1
				c0-1.1-0.9-2.1-2.1-2.1H2.1c-1.1,0-2.1,1-2,2.1C0,150.4,0.9,151.3,2.1,151.3L2.1,151.3z"/>
		</g>
	</g>
</g>
</svg>
