<svg xmlns="http://www.w3.org/2000/svg" width="590" height="418" viewBox="0 0 590 418">
  <metadata><?xpacket begin="﻿" id="W5M0MpCehiHzreSzNTczkc9d"?>
<x:xmpmeta xmlns:x="adobe:ns:meta/" x:xmptk="Adobe XMP Core 5.6-c138 79.159824, 2016/09/14-01:09:01        ">
   <rdf:RDF xmlns:rdf="http://www.w3.org/1999/02/22-rdf-syntax-ns#">
      <rdf:Description rdf:about=""/>
   </rdf:RDF>
</x:xmpmeta>
                                                                                                    
                                                                                                    
                                                                                                    
                                                                                                    
                                                                                                    
                                                                                                    
                                                                                                    
                                                                                                    
                                                                                                    
                                                                                                    
                                                                                                    
                                                                                                    
                                                                                                    
                                                                                                    
                                                                                                    
                                                                                                    
                                                                                                    
                                                                                                    
                                                                                                    
                                                                                                    
                           
<?xpacket end="w"?></metadata>
<defs>
    <style>
      .cls-1 {
        fill: #ffffff;
        fill-rule: evenodd;
      }
    </style>
  </defs>
  <g id="Монтажная_область_1" data-name="Монтажная область 1">
    <path id="Forma_1" data-name="Forma 1" class="cls-1" d="M658.217,352.523l-58.208-141.17a7.778,7.778,0,0,0-10.178-4.235L396,287.774A7.836,7.836,0,0,0,391.788,298L450,439.169a7.765,7.765,0,0,0,10.178,4.235L654,362.748A7.839,7.839,0,0,0,658.217,352.523ZM536.735,353.7L418.25,295.457l161.258-67.1Zm1.082,17.955a7.778,7.778,0,0,0,10.793-4.491L565.3,318.25,632.4,354.8,469.862,422.435l21.719-73.507Zm97.874-32.867-65.266-35.551,22.917-67.158ZM413.907,310.744l63.485,31.208-21.128,71.507ZM327.79,328.925h45.217a7.825,7.825,0,0,0,0-15.65H327.79A7.825,7.825,0,0,0,327.79,328.925Zm77.454,73.327H327.79a7.825,7.825,0,0,0,0,15.65h77.454A7.825,7.825,0,0,0,405.244,402.252ZM327.79,373.414h61.34a7.826,7.826,0,0,0,0-15.651H327.79A7.826,7.826,0,0,0,327.79,373.414Z" transform="translate(-320 -26)"/>
    <path id="Forma_1_copy_2" data-name="Forma 1 copy 2" class="cls-1" d="M851.726,234.009l-26.8-64.793a3.585,3.585,0,0,0-4.686-1.944L730.99,204.291a3.593,3.593,0,0,0-1.941,4.692l26.806,64.793a3.579,3.579,0,0,0,4.686,1.943L849.785,238.7A3.593,3.593,0,0,0,851.726,234.009Zm-55.936.54-54.556-26.733,74.251-30.8Zm0.5,8.241a3.586,3.586,0,0,0,4.97-2.061l7.685-22.451,30.893,16.775L765,266.1l10-33.737Zm45.066-15.085L811.3,211.388l10.552-30.823Zm-102.12-12.872,29.231,14.324-9.728,32.819Zm-39.653,8.345H720.4a3.592,3.592,0,0,0,0-7.184H699.581A3.592,3.592,0,0,0,699.581,223.178Zm35.664,33.654H699.581a3.592,3.592,0,0,0,0,7.184h35.664A3.592,3.592,0,0,0,735.245,256.832ZM699.581,243.6h28.244a3.592,3.592,0,0,0,0-7.183H699.581A3.592,3.592,0,0,0,699.581,243.6Z" transform="translate(-320 -26)"/>
    <path id="Forma_1_copy_12" data-name="Forma 1 copy 12" class="cls-1" d="M909.8,75.719L889.953,27.644a2.652,2.652,0,0,0-3.469-1.442L820.406,53.669a2.668,2.668,0,0,0-1.437,3.481l19.846,48.075a2.651,2.651,0,0,0,3.47,1.442L908.36,79.2A2.668,2.668,0,0,0,909.8,75.719Zm-41.414.4L827.99,56.285l54.974-22.851Zm0.369,6.114a2.652,2.652,0,0,0,3.679-1.529l5.69-16.657,22.873,12.446L845.585,99.526l7.4-25.032Zm33.366-11.193-22.25-12.107,7.812-22.87Zm-75.609-9.55,21.643,10.627-7.2,24.351Zm-29.358,6.191h15.416a2.665,2.665,0,0,0,0-5.33H797.151A2.665,2.665,0,0,0,797.151,67.682Zm26.405,24.971H797.151a2.665,2.665,0,0,0,0,5.33h26.405A2.665,2.665,0,0,0,823.556,92.653Zm-26.405-9.821h20.912a2.665,2.665,0,0,0,0-5.33H797.151A2.665,2.665,0,0,0,797.151,82.833Z" transform="translate(-320 -26)"/>
  </g>
</svg>
