<svg xmlns="http://www.w3.org/2000/svg" width="704" height="237" viewBox="0 0 704 237">
  <metadata><?xpacket begin="﻿" id="W5M0MpCehiHzreSzNTczkc9d"?>
<x:xmpmeta xmlns:x="adobe:ns:meta/" x:xmptk="Adobe XMP Core 5.6-c138 79.159824, 2016/09/14-01:09:01        ">
   <rdf:RDF xmlns:rdf="http://www.w3.org/1999/02/22-rdf-syntax-ns#">
      <rdf:Description rdf:about=""/>
   </rdf:RDF>
</x:xmpmeta>
                                                                                                    
                                                                                                    
                                                                                                    
                                                                                                    
                                                                                                    
                                                                                                    
                                                                                                    
                                                                                                    
                                                                                                    
                                                                                                    
                                                                                                    
                                                                                                    
                                                                                                    
                                                                                                    
                                                                                                    
                                                                                                    
                                                                                                    
                                                                                                    
                                                                                                    
                                                                                                    
                           
<?xpacket end="w"?></metadata>
<defs>
    <style>
      .cls-1 {
        fill: #f0f0f0;
      }

      .cls-1, .cls-5 {
        fill-rule: evenodd;
      }

      .cls-2, .cls-4 {
        fill: none;
        stroke-width: 2px;
      }

      .cls-2 {
        stroke: #c19f63;
      }

      .cls-3 {
        font-size: 20px;
        fill: #c19f63;
        font-family: "Droid Serif";
        font-weight: 700;
      }

      .cls-4 {
        stroke: #b4b4b4;
      }

      .cls-5 {
        fill: #141414;
      }

      .cls-6 {
        font-size: 10px;
        font-weight: 300;
      }

      .cls-6, .cls-8 {
        fill: #969696;
        font-family: "Open Sans";
      }

      .cls-7 {
        text-decoration: underline;
      }

      .cls-8 {
        font-size: 14px;
      }
    </style>
  </defs>
  <g id="Монтажная_область_1" data-name="Монтажная область 1">
    <path id="Forma_1_copy_2" data-name="Forma 1 copy 2" class="cls-1" d="M1815.76,2309.79l-23.19-55.88a3.107,3.107,0,0,0-4.06-1.68l-77.23,31.93a3.1,3.1,0,0,0-1.68,4.05l23.2,55.88a3.1,3.1,0,0,0,4.06,1.67l77.22-31.92A3.092,3.092,0,0,0,1815.76,2309.79Zm-48.4.47-47.21-23.06,64.25-26.56Zm0.43,7.1a3.119,3.119,0,0,0,1.36.32,3.048,3.048,0,0,0,1.19-.24,3.1,3.1,0,0,0,1.75-1.85l6.65-19.37,26.73,14.47-64.76,26.77,8.66-29.09Zm39-13.01-26.01-14.07,9.13-26.58Zm-88.37-11.1,25.29,12.36-8.42,28.3Zm-34.32,7.2h18.02a3.1,3.1,0,1,0,0-6.2H1684.1A3.1,3.1,0,0,0,1684.1,2300.45Zm30.87,29.02H1684.1a3.1,3.1,0,1,0,0,6.2h30.87A3.1,3.1,0,0,0,1714.97,2329.47Zm-30.87-11.41h24.44a3.1,3.1,0,1,0,0-6.2H1684.1A3.1,3.1,0,0,0,1684.1,2318.06Z" transform="translate(-1353 -2252)"/>
    <path id="Forma_1_copy_5" data-name="Forma 1 copy 5" class="cls-1" d="M1442.84,2306.73l-15.46-37.45a2.067,2.067,0,0,0-2.7-1.12l-51.49,21.39a2.089,2.089,0,0,0-1.12,2.72l15.46,37.45a2.069,2.069,0,0,0,1.92,1.28,2.028,2.028,0,0,0,.79-0.16l51.48-21.4A2.067,2.067,0,0,0,1442.84,2306.73Zm-32.27.31-31.47-15.45,42.83-17.8Zm0.29,4.77a2.089,2.089,0,0,0,.91.21,1.958,1.958,0,0,0,.79-0.16,2.1,2.1,0,0,0,1.17-1.24l4.43-12.98,17.82,9.7-43.17,17.94,5.77-19.5Zm26-8.72-17.34-9.43,6.09-17.82Zm-58.92-7.44,16.87,8.28-5.61,18.97Zm-22.87,4.82h12.01a2.075,2.075,0,0,0,0-4.15h-12.01A2.075,2.075,0,0,0,1355.07,2300.47Zm20.57,19.45h-20.57a2.08,2.08,0,0,0,0,4.16h20.57A2.08,2.08,0,0,0,1375.64,2319.92Zm-20.57-7.65h16.29a2.075,2.075,0,0,0,0-4.15h-16.29A2.075,2.075,0,0,0,1355.07,2312.27Z" transform="translate(-1353 -2252)"/>
    <path id="Forma_1_copy_4" data-name="Forma 1 copy 4" class="cls-1" d="M1680.66,2437.38l-32.81-79.66a4.387,4.387,0,0,0-5.74-2.39l-109.26,45.52a4.328,4.328,0,0,0-2.38,2.39,4.4,4.4,0,0,0,0,3.38l32.82,79.65a4.369,4.369,0,0,0,5.74,2.39l109.26-45.51A4.417,4.417,0,0,0,1680.66,2437.38Zm-68.48.67-66.79-32.87,90.9-37.86Zm0.61,10.13a4.37,4.37,0,0,0,1.93.45,4.276,4.276,0,0,0,1.68-.34,4.391,4.391,0,0,0,2.48-2.65l9.4-27.6,37.83,20.63-91.63,38.16,12.25-41.48Zm55.18-18.55-36.8-20.06,12.92-37.89Zm-125.03-15.82,35.79,17.61-11.91,40.35Zm-48.55,10.26h25.49a4.415,4.415,0,0,0,0-8.83h-25.49A4.415,4.415,0,0,0,1494.39,2424.07Zm43.66,41.37h-43.66a4.415,4.415,0,0,0,0,8.83h43.66A4.415,4.415,0,0,0,1538.05,2465.44Zm-43.66-16.27h34.58a4.415,4.415,0,0,0,0-8.83h-34.58A4.415,4.415,0,0,0,1494.39,2449.17Z" transform="translate(-1353 -2252)"/>
    <path id="Forma_1" data-name="Forma 1" class="cls-1" d="M2056.54,2400.74l-45.36-109.98a6.055,6.055,0,0,0-7.93-3.3l-151.03,62.84a6,6,0,0,0-3.28,3.3,6.07,6.07,0,0,0,0,4.66l45.36,109.98a6.082,6.082,0,0,0,5.61,3.76,6.149,6.149,0,0,0,2.32-.46l151.02-62.84A6.1,6.1,0,0,0,2056.54,2400.74Zm-94.66.91-92.32-45.37,125.65-52.27Zm0.84,13.99a6.069,6.069,0,0,0,4.99.16,6.066,6.066,0,0,0,3.42-3.66l13.01-38.1,52.28,28.47-126.65,52.69,16.92-57.26Zm76.26-25.6-50.85-27.7,17.86-52.31Zm-172.81-21.85,49.47,24.31-16.46,55.71Zm-67.1,14.16h35.23a6.1,6.1,0,0,0,0-12.19h-35.23A6.1,6.1,0,0,0,1799.07,2382.35Zm60.35,57.13h-60.35a6.1,6.1,0,0,0,0,12.19h60.35A6.1,6.1,0,0,0,1859.42,2439.48Zm-60.35-22.47h47.8a6.1,6.1,0,0,0,0-12.19h-47.8A6.1,6.1,0,0,0,1799.07,2417.01Z" transform="translate(-1353 -2252)"/>
    <g id="form">
      <g id="bg">
        <path id="Forma_1_copy_6" data-name="Forma 1 copy 6" class="cls-1" d="M1213.84,2397.73l-15.46-37.45a2.067,2.067,0,0,0-2.7-1.12l-51.49,21.39a2.089,2.089,0,0,0-1.12,2.72l15.46,37.45a2.069,2.069,0,0,0,1.92,1.28,2.028,2.028,0,0,0,.79-0.16l51.48-21.4A2.067,2.067,0,0,0,1213.84,2397.73Zm-32.27.31-31.47-15.45,42.83-17.8Zm0.29,4.77a2.089,2.089,0,0,0,.91.21,1.958,1.958,0,0,0,.79-0.16,2.1,2.1,0,0,0,1.17-1.24l4.43-12.98,17.82,9.7-43.17,17.94,5.77-19.5Zm26-8.72-17.34-9.43,6.09-17.82Zm-58.92-7.44,16.87,8.28-5.61,18.97Zm-22.87,4.82h12.01a2.075,2.075,0,0,0,0-4.15h-12.01A2.075,2.075,0,0,0,1126.07,2391.47Zm20.57,19.45h-20.57a2.08,2.08,0,0,0,0,4.16h20.57A2.08,2.08,0,0,0,1146.64,2410.92Zm-20.57-7.65h16.29a2.075,2.075,0,0,0,0-4.15h-16.29A2.075,2.075,0,0,0,1126.07,2403.27Z" transform="translate(-1353 -2252)"/>
      </g>
      <g id="CTA">
        <rect class="cls-2" x="682" y="127" width="270" height="60"/>
        <text id="отправить" class="cls-3" x="761" y="164.001">отправить</text>
      </g>
      <g id="check_" data-name="check ">
        <rect id="Rectangle_3_copy_14" data-name="Rectangle 3 copy 14" class="cls-4" x="682" y="48" width="18" height="18"/>
        <path id="Forma_1_copy_11" data-name="Forma 1 copy 11" class="cls-5" d="M2045.09,2308.49l-3.82-3.76-1.27,1.25,5.09,5.02,10.91-10.75-1.27-1.25Z" transform="translate(-1353 -2252)"/>
        <text id="Ставя_отметку_я_даю_своё_согласие_на_обработку_моих_персональн" data-name="Ставя отметку, я даю своё согласие на обработку моих персональн" class="cls-6" x="717.907" y="46.502">Ставя отметку, я даю своё согласие на обработку моих персональных данных в соответствии с законом<tspan x="717.907" dy="12">№ 152-ФЗ &quot;О персональных данных&quot; от 27.07.2006 и принимаю условия Ставя отметку, я даю своё согласие на обработку моих персональных данных в соответствии с законом№ 152-ФЗ &quot;О персональных данных&quot; от 27.07.2006 и принимаю условия <tspan class="cls-7">Пользовательского соглашения</tspan>.</tspan></text>
      </g>
      <g id="_4" data-name="4">
        <rect id="Rectangle_3_copy_6" data-name="Rectangle 3 copy 6" class="cls-4" x="682" y="-123" width="535" height="145"/>
        <text id="Опишите_какой_персонал_Вам_необходим" data-name="Опишите какой персонал Вам необходим" class="cls-8" x="710.999" y="-87.998">Опишите какой персонал Вам необходим</text>
      </g>
      <g id="_3" data-name="3">
        <rect id="Rectangle_3_copy_4" data-name="Rectangle 3 copy 4" class="cls-4" x="682" y="-208" width="535" height="60"/>
        <text id="Название_организации" data-name="Название организации" class="cls-8" x="710.999" y="-172.998">Название организации</text>
      </g>
      <g id="_2" data-name="2">
        <rect id="Rectangle_3_copy_4-2" data-name="Rectangle 3 copy 4" class="cls-4" x="682" y="-293" width="535" height="60"/>
        <text id="Телефон_или_e-mail" data-name="Телефон или e-mail" class="cls-8" x="710.999" y="-257.999">Телефон или e-mail</text>
      </g>
      <g id="_1" data-name="1">
        <rect id="Rectangle_3_copy_2" data-name="Rectangle 3 copy 2" class="cls-4" x="682" y="-378" width="534" height="60"/>
        <text id="Как_к_Вам_обращаться_" data-name="Как к Вам обращаться?" class="cls-8" x="710.999" y="-342.999">Как к Вам обращаться?</text>
      </g>
    </g>
  </g>
</svg>
